<?xml version="1.0" standalone="no"?>
<!DOCTYPE svg PUBLIC "-//W3C//DTD SVG 20010904//EN"
 "http://www.w3.org/TR/2001/REC-SVG-20010904/DTD/svg10.dtd">
<svg version="1.0" xmlns="http://www.w3.org/2000/svg"
 width="735.000000pt" height="735.000000pt" viewBox="0 0 735.000000 735.000000"
 preserveAspectRatio="xMidYMid meet">
<metadata>
Created by potrace 1.14, written by Peter Selinger 2001-2017
</metadata>
<g transform="translate(0.000000,735.000000) scale(0.100000,-0.100000)"
fill="#000000" stroke="none">
<path d="M0 3675 l0 -3675 1189 0 c1168 0 1189 0 1194 19 7 27 0 31 -29 21
-29 -11 -55 -3 -48 14 3 7 -2 18 -10 25 -8 7 -12 19 -9 27 4 10 0 12 -11 8 -9
-3 -16 -1 -16 5 0 6 14 11 30 11 17 0 30 5 30 10 0 6 -6 10 -14 10 -7 0 -19 6
-25 14 -21 25 23 39 98 33 l65 -5 -25 19 c-13 10 -32 19 -41 19 -10 0 -18 4
-18 9 0 5 30 11 68 14 129 10 314 45 331 62 15 16 13 17 -36 12 -29 -3 -53 -4
-53 -2 0 2 35 20 78 41 42 20 89 47 104 59 34 29 386 114 476 116 20 0 46 4
56 8 17 6 15 9 -15 23 -19 9 -52 19 -74 22 -22 3 -41 5 -42 6 -11 1 0 20 11
20 7 0 19 6 25 13 9 11 0 13 -47 10 -77 -5 -209 -21 -249 -29 -18 -3 -33 -2
-33 2 0 12 74 44 100 44 11 0 20 4 20 9 0 6 -21 10 -47 9 -27 0 -84 7 -127 17
-65 13 -91 15 -140 6 -65 -11 -200 -31 -212 -31 -4 0 1 9 11 20 10 11 24 20
30 20 40 0 220 95 210 110 -3 5 -46 8 -95 7 -76 -1 -92 2 -103 17 -10 14 -21
17 -45 11 -18 -3 -32 -11 -32 -16 0 -10 -53 -13 -62 -3 -3 3 9 34 27 68 18 35
36 78 40 95 4 18 13 44 21 59 15 29 10 42 -8 24 -7 -7 -20 -12 -30 -12 -10 0
-25 -11 -33 -24 -18 -26 -106 -76 -137 -76 -11 0 -16 -4 -13 -11 4 -6 -2 -17
-13 -25 -12 -8 -19 -20 -16 -27 8 -22 -42 -42 -71 -29 -15 7 -27 8 -30 2 -4
-6 -15 -10 -26 -10 -10 0 -19 -7 -19 -15 0 -8 -4 -15 -9 -15 -5 0 -12 -7 -15
-16 -4 -11 -2 -15 7 -11 8 3 19 2 26 -3 8 -5 -11 -20 -56 -43 -37 -19 -81 -42
-98 -51 -16 -9 -37 -16 -45 -16 -9 0 -20 -4 -25 -8 -6 -5 -39 -19 -75 -32 -36
-13 -76 -29 -90 -35 -50 -24 -155 -54 -163 -46 -8 8 -2 11 91 52 28 13 52 27
52 31 0 5 4 8 9 8 18 0 104 41 98 46 -7 7 -95 -20 -162 -51 -27 -12 -61 -26
-75 -30 -14 -4 -27 -11 -30 -15 -3 -4 -41 -26 -85 -49 -44 -23 -98 -52 -120
-66 -22 -13 -54 -24 -72 -25 -18 0 -56 -5 -85 -11 -38 -9 -53 -9 -56 0 -3 8
-9 8 -23 1 -10 -6 -19 -7 -19 -3 0 12 67 63 81 63 10 0 10 3 2 11 -10 10 -48
-2 -63 -20 -3 -4 -25 -22 -48 -40 -36 -28 -46 -32 -54 -20 -7 11 -11 11 -15 2
-2 -7 -13 -13 -23 -13 -10 0 -21 -4 -24 -9 -3 -5 -17 -11 -31 -14 -20 -3 -25
-1 -21 10 3 8 6 17 6 19 0 2 7 4 15 4 17 0 20 16 6 25 -5 3 1 17 15 32 13 14
24 30 24 34 0 5 6 9 14 9 13 0 46 40 46 56 0 10 -51 -26 -93 -65 -20 -19 -37
-43 -37 -53 0 -10 -11 -25 -24 -34 -14 -8 -24 -21 -22 -27 1 -7 1 -9 -1 -4 -3
4 -9 5 -14 2 -5 -3 -18 9 -29 27 -29 48 -27 115 6 159 21 28 64 112 64 125 0
13 -20 0 -25 -16 -3 -11 -12 -20 -20 -20 -14 0 -28 -27 -20 -40 3 -5 -4 -12
-15 -15 -38 -12 -80 -62 -80 -94 0 -16 -5 -33 -11 -37 -9 -5 -10 9 -7 49 5 59
38 110 65 100 7 -3 13 1 13 9 0 8 9 34 21 58 27 56 51 138 44 150 -3 5 0 12 6
16 6 3 15 0 20 -7 7 -12 23 -7 25 9 8 55 56 101 75 71 4 -7 11 -10 16 -6 4 5
1 12 -6 16 -7 5 -10 14 -7 20 4 6 12 9 17 5 6 -3 13 3 16 15 3 12 9 21 14 21
14 0 10 -17 -8 -35 -13 -14 -14 -21 -5 -36 10 -16 9 -21 -8 -31 -20 -13 -28
-48 -11 -48 5 0 23 13 41 30 18 16 36 30 40 30 4 0 13 6 19 14 7 8 23 17 37
20 14 4 37 18 50 31 14 14 35 27 49 31 13 3 26 12 29 20 3 8 11 14 17 14 7 0
18 8 25 17 7 10 16 15 20 11 4 -4 1 -14 -5 -22 -9 -11 -9 -16 0 -22 7 -4 16 1
21 10 8 14 13 15 24 5 12 -10 20 -8 42 8 34 24 58 34 102 40 19 3 39 9 44 14
6 5 20 9 33 9 13 0 23 5 23 10 0 6 6 10 13 10 18 0 167 76 194 100 27 23 40
25 46 8 3 -10 7 -10 18 -2 45 35 66 17 29 -24 -19 -20 -19 -22 -3 -22 10 0 29
-3 43 -5 22 -5 22 -4 5 4 -18 8 -17 10 10 10 17 1 43 8 59 16 36 19 47 19 40
0 -7 -17 21 -21 31 -5 8 13 45 13 45 1 0 -5 -6 -16 -13 -23 -29 -32 -38 -46
-28 -52 5 -3 15 0 23 7 17 16 81 47 87 42 2 -3 -2 -11 -8 -19 -7 -8 -8 -17 -3
-20 6 -3 12 3 15 14 3 11 12 20 21 20 9 0 16 7 16 15 0 13 18 20 43 16 4 0 7
3 7 8 0 6 11 22 25 37 21 22 26 24 31 10 3 -9 3 -23 0 -32 -4 -9 -2 -22 4 -29
8 -10 2 -23 -25 -52 -19 -21 -35 -46 -35 -55 0 -11 -5 -15 -15 -12 -13 5 -13
3 0 -22 13 -25 13 -30 -2 -46 -16 -18 -12 -48 7 -48 6 0 13 7 16 15 4 8 10 15
16 15 27 0 79 58 93 104 17 56 15 68 -5 31 -13 -24 -50 -35 -50 -15 0 6 7 10
16 10 10 0 15 8 13 23 -1 12 1 29 5 38 11 26 -1 112 -18 125 -9 6 -14 18 -11
26 3 8 1 34 -4 58 -11 48 1 81 45 129 13 14 24 29 24 33 0 4 9 10 20 13 31 10
38 36 19 73 l-17 32 -20 -22 c-92 -103 -84 -96 -78 -65 14 63 18 117 9 117 -5
0 -25 -32 -44 -72 -34 -72 -86 -138 -108 -138 -9 0 -9 5 -1 21 7 11 9 27 6 35
-3 8 -1 12 4 9 12 -7 49 66 47 93 0 11 -5 18 -9 16 -5 -3 -7 -13 -6 -22 2 -9
-3 -16 -9 -15 -7 2 -13 -4 -13 -13 0 -8 -5 -12 -10 -9 -6 3 -14 -5 -20 -19 -5
-14 -14 -26 -19 -26 -5 0 -12 -12 -16 -28 l-7 -27 -9 24 c-7 17 -5 46 6 92 8
38 15 80 15 95 0 14 20 65 45 112 25 47 45 88 45 91 -1 3 -23 -19 -50 -49 -27
-30 -52 -51 -56 -47 -4 4 2 28 14 52 26 54 26 55 7 55 -8 0 -15 -9 -15 -20 0
-11 -4 -20 -9 -20 -5 0 -7 24 -4 53 2 28 5 68 7 87 4 43 20 112 49 205 12 39
21 82 19 97 -2 21 0 26 11 22 8 -3 17 2 21 11 9 24 -26 15 -39 -10 -19 -38
-59 -85 -71 -85 -7 0 -15 -8 -18 -18 -17 -52 -36 -134 -41 -178 -3 -27 -8 -67
-11 -89 -7 -57 -11 -87 -12 -113 -1 -14 -6 -21 -13 -16 -8 4 -9 -1 -3 -17 4
-13 7 -72 5 -132 -2 -72 1 -107 8 -107 6 0 11 -18 11 -39 0 -34 -4 -41 -28
-49 -18 -7 -21 -11 -9 -11 10 -1 15 -6 12 -11 -4 -6 -16 -8 -28 -4 -19 6 -20
5 -9 -9 11 -12 11 -19 1 -36 -12 -18 -48 -35 -57 -27 -6 7 38 86 49 86 6 0 7
5 4 10 -3 6 -1 10 4 10 6 0 11 20 11 46 0 37 -3 45 -15 40 -18 -6 -19 46 -4
134 23 129 28 181 30 293 0 65 5 134 9 155 4 20 10 64 13 97 4 50 3 55 -5 30
-14 -39 -15 -40 -32 -26 -12 10 -17 6 -29 -21 -9 -18 -18 -44 -22 -58 l-6 -25
20 24 c12 13 21 32 21 42 0 10 5 19 10 19 6 0 8 -11 5 -25 -3 -14 -7 -36 -10
-50 -4 -18 -11 -24 -27 -22 -16 1 -22 -4 -24 -23 -8 -65 -24 -346 -25 -435 -1
-55 -6 -106 -12 -113 -5 -7 -7 -15 -4 -19 3 -3 0 -18 -9 -34 -16 -31 -9 -39
11 -13 11 15 12 15 18 -5 3 -12 0 -27 -7 -34 -7 -6 -18 -21 -25 -32 -12 -19
-12 -19 -7 3 4 19 2 21 -10 11 -8 -6 -14 -24 -14 -40 0 -22 -7 -32 -31 -45
-30 -15 -32 -15 -25 2 5 17 4 17 -6 4 -7 -9 -40 -22 -73 -30 -33 -8 -73 -22
-90 -32 -39 -23 -63 -24 -41 -2 18 17 21 34 7 34 -5 0 -14 -7 -21 -15 -7 -8
-17 -15 -23 -15 -5 0 -45 -18 -89 -41 l-80 -40 17 28 c9 16 31 39 48 51 58 41
162 142 146 142 -8 0 -24 -7 -34 -15 -11 -8 -51 -40 -89 -70 -39 -30 -72 -53
-74 -50 -8 8 9 75 19 75 6 0 7 5 4 11 -10 15 -34 -21 -35 -52 0 -21 -9 -32
-40 -48 -22 -12 -49 -21 -58 -21 -10 0 -23 -5 -29 -11 -6 -6 -16 -8 -22 -5 -9
6 81 201 107 232 5 6 12 20 16 31 9 28 -20 39 -34 13 -5 -10 -16 -24 -23 -32
-7 -7 -25 -30 -38 -50 -14 -21 -29 -35 -32 -31 -4 3 -7 -4 -7 -17 0 -19 -2
-20 -15 -10 -18 15 -20 40 -4 40 7 0 9 10 5 26 -6 21 -4 25 8 21 9 -4 18 -2
21 3 4 6 1 10 -6 10 -8 0 -6 5 5 13 9 7 16 18 14 24 -2 6 6 18 17 26 16 13 17
17 6 31 -11 14 -11 16 4 16 13 0 16 6 11 26 -4 14 -2 32 4 40 7 7 9 18 5 24
-8 12 4 52 13 46 4 -2 8 17 10 43 1 25 7 47 12 49 15 5 12 32 -2 32 -14 0 -68
-71 -68 -89 0 -6 -5 -11 -11 -11 -7 0 -9 10 -4 28 4 15 9 41 11 57 1 17 12 52
23 77 11 26 24 72 30 104 6 31 16 64 23 72 11 12 10 17 -3 25 -14 9 -12 14 15
38 30 27 31 28 9 36 l-22 8 19 40 c11 22 19 49 20 61 0 11 9 29 20 39 23 21
26 41 8 48 -8 2 -9 8 -4 13 5 5 11 4 13 -3 8 -22 21 -14 44 27 13 22 26 40 30
40 4 0 10 12 14 28 3 15 16 37 27 49 12 13 18 28 14 40 -5 15 0 23 19 31 14 6
25 18 25 26 0 7 7 19 15 26 9 7 13 15 11 18 -8 7 -86 -80 -86 -95 0 -7 -3 -13
-7 -13 -5 0 -24 -24 -43 -52 -19 -29 -47 -64 -62 -78 -16 -13 -28 -28 -28 -32
0 -5 -8 -16 -19 -27 -10 -10 -20 -24 -23 -32 -6 -19 -28 -1 -27 24 0 12 3 16
6 10 9 -24 23 -13 17 12 -4 15 1 40 11 63 70 149 86 181 100 192 9 8 22 27 29
44 16 36 49 76 64 76 14 0 23 28 10 32 -7 3 -9 12 -5 22 5 12 13 15 27 11 11
-4 20 -2 20 4 0 6 -4 11 -10 11 -18 0 -11 20 9 28 19 7 21 10 21 33 0 6 7 9
14 6 10 -4 13 -1 10 8 -6 16 32 85 47 85 5 0 9 4 9 8 0 11 158 172 168 172 5
0 16 8 25 18 12 14 13 20 3 33 -10 15 -16 13 -55 -22 -23 -21 -46 -39 -50 -39
-4 0 -23 -15 -43 -34 -22 -21 -38 -30 -41 -23 -3 8 -10 6 -25 -6 -15 -14 -21
-15 -25 -5 -3 7 -6 -3 -6 -23 -1 -24 -9 -43 -26 -59 -14 -13 -25 -30 -25 -37
0 -8 -4 -12 -9 -8 -13 8 5 65 25 80 9 6 14 17 10 23 -4 7 -3 12 3 12 5 0 11
10 13 23 2 14 10 22 22 22 24 0 32 21 16 41 -17 19 -5 30 15 14 12 -10 18 -11
28 -1 9 10 8 11 -5 6 -21 -8 -23 4 -7 39 8 16 17 22 27 18 12 -4 14 -1 9 12
-8 21 9 56 28 56 7 0 16 8 19 18 4 11 18 25 31 32 14 7 25 17 25 22 0 4 7 8
16 8 11 0 15 6 11 20 -4 15 5 26 39 47 42 27 64 53 44 53 -6 0 -10 -3 -10 -7
0 -11 -52 -34 -59 -27 -3 3 4 13 17 21 12 9 22 23 22 32 0 14 2 14 10 1 7 -11
12 -12 20 -4 9 9 9 14 1 18 -15 10 -14 37 2 33 6 -1 12 5 12 13 0 8 4 20 8 27
11 18 -15 21 -50 6 -20 -8 -33 -9 -33 -3 0 5 5 10 10 10 12 0 14 26 3 33 -5 2
-2 2 5 1 6 -2 12 1 12 6 0 6 9 10 19 10 11 0 23 5 26 10 8 13 42 13 50 0 3 -6
-6 -15 -21 -20 -20 -8 -24 -14 -16 -22 8 -8 15 -8 27 2 8 7 15 9 15 5 0 -4 7
-2 15 5 8 6 29 16 47 20 18 5 62 19 97 31 50 18 67 20 82 11 13 -8 26 -9 46
-1 15 5 36 9 47 8 44 -3 77 1 72 10 -3 5 5 11 19 13 22 5 23 3 13 -10 -11 -13
-8 -15 30 -10 23 4 42 2 42 -2 0 -8 87 -20 150 -20 26 0 31 -2 20 -10 -12 -8
-10 -10 10 -11 14 -1 32 -2 40 -1 8 1 32 -5 53 -13 47 -19 44 -19 50 5 7 26
29 26 25 0 -2 -10 2 -19 7 -19 6 0 9 9 7 20 -3 17 1 19 25 13 27 -6 27 -6 8 9
-20 16 -20 16 5 17 14 0 32 -5 40 -10 11 -7 11 -10 2 -10 -10 0 -10 -5 -1 -22
8 -14 14 -18 17 -10 5 17 31 15 38 -3 10 -24 44 -19 45 8 1 15 4 9 11 -16 8
-30 16 -39 39 -44 16 -3 29 -9 29 -14 0 -5 7 -9 15 -9 9 0 18 -12 21 -30 4
-16 15 -32 25 -35 11 -4 19 -12 19 -18 1 -7 25 -30 55 -51 30 -22 55 -42 55
-46 0 -4 11 -5 25 -2 20 3 25 0 25 -16 0 -11 5 -22 10 -24 6 -2 11 -18 13 -36
1 -20 6 -30 14 -28 7 3 21 -6 31 -19 11 -13 31 -30 46 -36 17 -8 26 -20 26
-35 0 -13 8 -28 18 -33 9 -6 13 -11 9 -11 -4 0 -2 -6 5 -14 7 -8 17 -12 22 -9
4 3 5 -4 2 -15 -4 -13 -2 -24 7 -29 7 -4 23 -23 36 -40 28 -41 42 -42 34 -3
-3 19 -1 30 6 30 6 0 11 -6 11 -13 0 -7 7 -23 16 -35 l15 -22 35 28 c18 15 34
32 34 37 1 16 48 65 62 65 8 0 15 12 16 28 1 15 8 29 14 31 24 8 68 60 68 79
0 11 7 22 15 25 17 7 57 82 48 91 -4 3 2 6 13 6 21 0 144 111 144 130 0 6 11
16 25 22 14 6 25 15 25 20 0 4 7 8 15 8 8 0 15 5 15 10 0 6 9 10 19 10 24 0
33 23 21 55 -9 23 -39 36 -41 18 0 -5 -2 -16 -4 -25 -2 -10 1 -18 6 -18 5 0 9
-4 9 -10 0 -6 -9 -5 -24 1 -30 14 -56 -5 -48 -35 4 -13 1 -17 -9 -14 -8 3 -14
19 -14 39 0 31 -3 34 -33 37 -29 2 -33 -1 -38 -28 -4 -16 -10 -27 -15 -24 -5
3 -7 10 -4 15 4 5 4 13 0 19 -8 13 -35 1 -35 -16 0 -7 -6 -11 -14 -8 -9 4 -20
-6 -31 -25 -16 -32 -29 -39 -40 -21 -12 20 -27 10 -22 -16 3 -18 1 -24 -9 -20
-15 6 -37 -17 -26 -29 4 -4 -3 -4 -15 -1 -13 4 -23 4 -23 -1 0 -4 -13 -23 -29
-42 -17 -19 -28 -38 -25 -42 2 -4 -2 -9 -10 -12 -7 -3 -23 -38 -35 -79 -13
-40 -25 -80 -28 -88 -3 -9 -13 3 -28 33 -13 27 -32 55 -44 63 -12 9 -21 21
-21 29 0 18 -59 80 -83 89 -11 3 -21 15 -24 26 -3 11 -9 20 -14 20 -4 0 -30
20 -56 45 -26 25 -58 48 -70 51 -13 4 -20 10 -17 15 3 5 -6 13 -20 19 -14 5
-40 23 -57 40 -18 16 -40 30 -49 30 -10 0 -29 9 -44 21 -18 14 -31 18 -39 11
-7 -5 -29 -12 -49 -15 -29 -4 -38 -2 -38 9 0 8 -7 14 -16 14 -8 0 -12 5 -9 10
3 6 -4 10 -17 9 -13 0 -17 -3 -10 -6 14 -6 16 -33 2 -33 -5 0 -10 5 -10 11 0
6 -6 9 -14 6 -16 -6 -56 24 -56 42 0 14 17 15 25 1 7 -11 155 -14 155 -2 0 4
-4 13 -9 21 -8 12 -12 12 -25 2 -14 -12 -16 -10 -16 8 0 14 6 21 20 21 11 0
20 4 20 9 0 5 -9 13 -20 16 -11 3 -20 11 -20 16 0 18 -29 41 -41 33 -7 -4 -9
-3 -6 3 8 13 -15 23 -52 23 -30 0 -71 32 -71 55 0 8 -7 15 -16 15 -9 0 -29 11
-46 25 -16 14 -38 25 -48 25 -10 0 -21 4 -24 9 -9 13 -133 23 -156 11 -11 -5
-29 -15 -40 -20 -12 -6 -25 -8 -30 -5 -4 3 -11 -1 -14 -7 -4 -8 -8 -9 -11 -3
-3 6 -51 10 -115 9 -91 -1 -108 2 -99 13 9 10 6 13 -12 15 -43 2 -48 3 -55 11
-4 4 -16 7 -26 7 -27 0 -22 19 7 25 14 3 37 8 52 11 15 3 29 0 33 -7 5 -7 13
-8 21 -3 7 4 23 8 34 9 90 5 91 6 67 17 -14 7 -22 19 -20 31 2 14 -6 22 -32
31 -30 9 -35 15 -32 39 2 17 -1 27 -10 28 -12 1 -58 6 -85 10 -14 3 -27 29
-14 29 9 0 35 51 33 63 -1 4 6 7 16 8 9 1 2 5 -17 9 -19 5 -46 4 -63 -2 -16
-6 -32 -8 -35 -4 -3 3 6 28 20 55 33 60 33 69 2 77 -21 5 -24 11 -19 28 4 11
10 23 14 26 4 3 14 18 22 35 14 26 14 30 0 41 -14 10 -14 15 4 45 43 72 37
122 -15 134 -27 6 -30 10 -27 32 3 14 11 30 19 37 7 6 30 36 49 66 20 30 48
66 62 79 35 33 33 51 -11 96 -30 31 -34 40 -25 54 31 42 52 93 52 123 0 18 4
49 8 68 4 19 3 80 -3 135 -7 55 -8 104 -4 109 11 13 29 -3 29 -27 0 -12 7 -44
15 -71 9 -29 15 -92 16 -155 0 -58 5 -123 10 -143 7 -26 6 -44 -1 -58 -9 -16
-8 -22 5 -26 10 -4 13 -13 10 -24 -3 -10 -1 -21 5 -25 5 -3 10 -15 10 -26 0
-10 6 -19 14 -19 15 0 29 27 21 41 -3 4 1 19 9 31 13 19 13 27 2 48 -10 21
-10 33 2 69 12 34 12 45 2 51 -9 6 -7 13 9 29 11 11 21 28 21 36 0 21 -27 30
-45 15 -20 -17 -27 -9 -31 37 -5 45 -9 73 -16 93 -3 8 -11 35 -18 60 -7 25
-16 55 -21 68 -5 13 -9 31 -9 41 0 10 -14 24 -34 34 -42 20 -77 65 -107 137
-20 48 -22 72 -22 195 0 77 6 160 12 185 7 25 15 56 18 70 3 14 20 45 38 70
18 25 43 66 55 93 12 26 26 47 30 47 4 0 27 25 51 55 24 30 52 58 61 61 10 3
18 11 18 18 0 20 67 79 81 71 8 -5 10 -4 5 4 -4 6 0 14 11 18 10 4 38 19 63
34 25 15 78 35 118 45 39 9 70 19 68 21 -2 2 -84 -1 -182 -6 -99 -6 -203 -9
-233 -6 -32 3 -60 0 -68 -6 -9 -8 -13 -8 -13 -1 0 6 5 14 10 17 6 3 10 15 10
25 0 14 10 20 40 25 40 7 57 34 23 36 -11 0 -4 7 16 16 28 12 88 15 307 15
150 0 278 4 286 9 10 7 8 9 -7 9 -17 1 -16 3 5 12 14 5 65 11 114 11 80 2 91
0 110 -20 30 -33 39 -28 32 15 -4 26 -1 45 10 60 16 23 68 55 76 46 3 -2 15
-7 27 -9 13 -2 31 -7 41 -10 10 -3 21 -1 25 5 3 5 14 10 23 10 16 -1 16 -2 0
-14 -23 -17 -23 -30 -2 -22 10 4 22 -1 31 -11 10 -12 16 -14 19 -6 11 26 84
-19 84 -53 0 -5 -162 0 -195 6 -6 1 -19 2 -30 1 -18 -1 -19 -2 -2 -12 9 -5 17
-16 17 -24 0 -12 20 -14 103 -14 56 1 108 6 115 11 19 16 15 66 -8 80 -11 7
-20 21 -20 30 0 14 8 18 38 18 44 0 69 -21 74 -62 5 -35 14 -44 31 -30 7 7 41
11 74 11 33 -1 71 4 83 11 12 7 25 8 29 3 11 -16 65 -11 92 8 26 18 27 18 22
1 -4 -15 1 -19 27 -19 21 0 29 4 26 13 -3 8 -1 16 4 19 6 4 10 2 10 -3 0 -5
14 -9 30 -10 17 0 28 4 25 9 -4 5 12 9 34 9 22 0 42 -3 44 -7 3 -5 33 -8 66
-8 48 1 61 -3 62 -15 0 -10 2 -11 6 -2 2 6 11 12 19 12 9 0 12 -4 9 -10 -3 -5
1 -10 10 -10 8 0 23 -4 33 -9 58 -31 126 -41 260 -39 148 3 200 -9 194 -45 -2
-10 4 -20 13 -23 8 -3 15 -10 15 -16 0 -5 -5 -6 -10 -3 -6 3 -13 -1 -16 -10
-5 -11 -17 -15 -43 -14 -20 1 -54 1 -76 0 l-40 -2 64 -25 c92 -36 147 -75 143
-102 -4 -30 26 -29 38 2 4 13 23 33 42 44 28 17 45 19 116 15 88 -6 114 -23
35 -23 -27 0 -57 -7 -68 -16 -19 -14 -17 -15 20 -9 51 8 120 -9 162 -41 17
-13 36 -24 42 -24 6 0 11 -7 11 -15 0 -8 9 -19 20 -25 11 -6 20 -19 20 -30 0
-10 5 -22 10 -25 6 -3 10 -21 10 -39 0 -18 12 -64 26 -102 43 -115 47 -143 46
-295 0 -102 -5 -157 -16 -185 -8 -21 -17 -56 -21 -78 -3 -21 -15 -55 -26 -75
-10 -20 -19 -42 -19 -49 0 -23 -37 -86 -72 -121 -58 -60 -116 -91 -172 -92
-28 -1 -42 -3 -31 -6 28 -7 43 -23 22 -23 -22 0 -21 -8 0 -32 18 -20 26 -88
11 -88 -5 0 -7 -4 -4 -9 4 -5 0 -12 -6 -15 -9 -3 -7 -9 6 -20 18 -15 19 -16 2
-16 -13 0 -16 -5 -11 -17 4 -10 8 -25 8 -33 0 -8 6 -24 14 -35 14 -19 15 -19
8 5 -6 24 -5 24 19 -5 29 -34 33 -47 11 -39 -30 12 -14 -21 32 -68 40 -40 44
-48 26 -48 -29 0 -51 -27 -29 -36 9 -3 13 -10 10 -15 -3 -5 8 -14 23 -20 74
-29 93 -40 128 -71 38 -32 38 -33 14 -39 -13 -4 -41 -7 -61 -8 -45 -1 -47 -11
-14 -74 45 -83 98 -124 226 -174 l24 -10 -27 -18 c-15 -9 -63 -22 -107 -28
l-79 -10 20 -28 c11 -15 28 -31 39 -34 11 -4 29 -24 40 -45 18 -36 19 -39 2
-42 -9 -2 -30 -1 -46 4 -35 9 -51 1 -35 -18 9 -11 8 -14 -7 -14 -13 0 -10 -6
15 -24 28 -21 81 -82 81 -94 0 -2 -12 -1 -26 2 -15 4 -32 2 -40 -5 -8 -6 -22
-8 -31 -4 -20 8 -41 12 -124 21 -40 5 -58 3 -64 -6 -6 -9 0 -10 24 -5 33 7 45
-10 14 -18 -17 -4 -17 -5 0 -6 9 0 17 -5 17 -10 0 -5 15 -12 34 -15 18 -4 60
-19 92 -35 57 -28 58 -29 32 -36 -16 -4 -35 -5 -43 -2 -8 4 -17 2 -20 -3 -9
-15 -34 -12 -51 5 -9 8 -27 15 -42 15 -26 -1 -26 -1 6 -15 73 -32 2 -71 -146
-80 -61 -3 -122 -13 -142 -21 -23 -11 -36 -12 -38 -5 -2 6 -11 11 -19 11 -9 0
-13 -6 -9 -15 3 -9 0 -15 -9 -15 -8 0 -15 -4 -15 -10 0 -5 7 -10 15 -10 8 0
15 -4 15 -9 0 -15 -18 -23 -25 -11 -3 5 -15 10 -27 10 -17 0 -18 -2 -8 -15 10
-12 9 -15 -4 -15 -27 0 -104 -38 -114 -57 -6 -10 -16 -14 -27 -9 -12 4 -32 -3
-58 -21 -22 -15 -58 -36 -81 -45 -31 -13 -35 -17 -18 -17 14 -1 21 -5 16 -12
-3 -6 -17 -8 -30 -5 -14 4 -24 2 -24 -4 0 -5 -9 -10 -20 -10 -11 0 -20 -4 -20
-9 0 -22 -53 -71 -76 -71 -13 0 -24 -5 -24 -10 0 -6 -12 -22 -27 -35 -24 -21
-25 -24 -10 -25 11 0 32 9 47 20 20 14 29 17 32 8 3 -8 13 -5 33 10 15 12 41
22 56 22 16 0 29 5 29 10 0 6 6 10 13 10 8 0 28 7 46 16 17 9 39 13 47 10 8
-3 25 0 37 8 31 20 117 27 117 11 0 -8 -6 -15 -12 -18 -9 -3 -7 -9 7 -20 17
-13 50 -15 209 -12 126 2 194 0 206 -7 14 -9 22 -8 35 5 19 19 35 22 35 6 0
-6 7 -9 15 -6 8 4 26 0 41 -8 15 -7 33 -11 40 -8 8 3 14 0 14 -6 0 -6 7 -11
15 -11 8 0 15 -5 15 -11 0 -5 5 -7 11 -4 5 4 19 -1 29 -10 10 -9 24 -14 29
-10 6 3 11 -1 11 -10 0 -9 5 -13 10 -10 6 3 13 -1 16 -9 3 -9 10 -16 15 -16
19 0 52 -39 46 -55 -5 -13 -3 -14 13 -5 25 13 30 13 30 -5 0 -7 8 -19 18 -24
15 -9 15 -12 2 -21 -13 -8 -12 -10 3 -10 10 0 15 -4 12 -10 -3 -5 -1 -10 5
-10 7 0 24 -10 38 -22 20 -15 22 -19 7 -13 -11 4 -27 8 -35 10 -8 1 -9 0 -2
-2 15 -6 16 -30 0 -35 -9 -3 -9 -6 0 -12 7 -4 12 -2 12 3 0 6 4 11 10 11 5 0
9 -10 7 -22 -2 -23 2 -25 38 -13 15 5 16 4 6 -3 -11 -8 -5 -18 28 -51 22 -22
41 -48 41 -56 0 -8 7 -15 17 -15 9 0 13 -3 10 -7 -4 -3 5 -21 19 -40 21 -28
23 -34 10 -39 -23 -9 -20 -27 3 -19 13 4 23 -2 34 -19 9 -13 27 -36 41 -51 15
-16 22 -33 19 -42 -5 -12 -3 -14 7 -8 7 5 11 4 8 -1 -3 -5 -2 -20 3 -33 8 -19
12 -21 24 -11 9 7 18 10 21 7 9 -9 -35 -29 -48 -21 -7 5 -8 3 -3 -6 5 -8 3
-11 -6 -8 -8 3 -13 11 -11 18 2 7 -11 28 -29 46 -17 18 -29 36 -26 41 3 4 -6
16 -18 26 -14 10 -26 13 -30 7 -8 -12 -45 26 -41 42 1 7 1 10 -1 6 -8 -15 -26
-8 -67 25 -54 44 -92 67 -108 67 -10 0 -10 -2 0 -9 8 -4 13 -11 13 -15 -2 -17
0 -22 19 -33 16 -11 18 -10 14 2 -4 8 -1 15 5 15 6 0 11 -8 11 -17 0 -22 115
-130 132 -124 7 2 10 0 6 -4 -7 -7 22 -45 77 -106 8 -9 15 -20 15 -25 0 -6 22
-35 50 -65 27 -29 56 -66 62 -82 7 -15 18 -27 25 -27 6 0 15 -5 19 -12 4 -7 3
-8 -4 -4 -7 4 -12 4 -12 0 0 -12 44 -79 57 -87 8 -5 23 -29 35 -55 12 -26 28
-55 36 -65 21 -24 52 -115 45 -133 -3 -8 1 -14 9 -14 19 0 20 -37 2 -44 -8 -3
-17 1 -20 9 -9 24 -94 106 -104 100 -4 -3 -6 3 -3 13 5 19 -93 130 -104 118
-4 -3 6 -19 21 -35 16 -16 26 -34 22 -39 -3 -5 8 -27 24 -48 16 -21 30 -43 30
-47 0 -5 8 -16 17 -25 12 -12 18 -13 21 -4 2 6 8 12 14 12 6 0 6 -6 -2 -15 -9
-11 -8 -20 9 -44 12 -16 21 -35 21 -43 0 -8 4 -18 8 -23 4 -6 18 -37 30 -70
13 -33 31 -76 41 -95 10 -19 16 -41 14 -48 -7 -19 -23 -3 -23 24 0 15 -6 24
-15 24 -17 0 -19 -12 -5 -26 5 -5 14 -33 20 -62 5 -29 21 -78 35 -109 16 -35
24 -65 20 -80 -3 -13 -1 -23 5 -23 5 0 10 -6 10 -14 0 -8 5 -16 12 -18 8 -3 8
-9 1 -23 -10 -16 -12 -15 -28 18 -14 31 -72 87 -89 87 -3 0 -6 -14 -6 -31 0
-27 2 -30 15 -19 13 10 15 9 15 -12 0 -13 5 -29 11 -35 8 -8 8 -13 0 -17 -16
-10 -13 -26 5 -26 11 0 14 -6 9 -21 -5 -16 -4 -19 5 -14 9 5 10 1 5 -15 -4
-12 -3 -25 1 -29 5 -3 17 -20 27 -38 16 -30 16 -31 -1 -26 -10 2 -24 17 -30
31 l-11 27 6 -30 c7 -37 21 -55 40 -55 10 0 14 -7 10 -20 -3 -11 -2 -20 2 -20
3 0 11 -10 16 -23 6 -12 17 -21 24 -19 9 2 10 -4 6 -19 -4 -13 -2 -25 5 -29
10 -6 9 -13 -5 -31 -12 -17 -16 -19 -11 -6 7 23 -3 45 -13 28 -4 -7 -29 18
-61 61 -49 66 -54 70 -63 50 -5 -11 -7 -27 -3 -34 13 -26 32 -56 43 -69 6 -8
13 -25 15 -39 2 -17 10 -26 26 -28 12 -2 20 -7 17 -12 -3 -5 8 -36 24 -69 27
-57 28 -79 2 -47 -7 8 -34 20 -62 26 -55 13 -72 30 -114 115 -16 30 -30 54
-32 52 -2 -2 6 -30 17 -63 11 -32 20 -62 20 -67 0 -12 -56 20 -94 54 -50 43
-149 109 -156 103 -2 -3 11 -20 30 -37 164 -147 194 -176 190 -181 -3 -3 -54
20 -113 49 -100 51 -135 57 -85 14 11 -11 18 -19 14 -19 -11 0 -80 30 -86 38
-4 6 -78 29 -115 36 -5 1 -16 5 -24 10 -8 5 -25 9 -39 10 -22 1 -25 6 -29 41
-2 22 -11 45 -19 52 -9 6 -13 16 -9 22 3 6 1 11 -4 11 -6 0 -11 12 -11 26 0
17 -4 24 -13 21 -9 -3 -13 7 -13 37 -1 83 -20 441 -24 441 -1 0 -3 20 -5 45
-7 73 -28 152 -42 157 -7 3 -13 16 -13 29 0 13 -5 24 -11 24 -5 0 -7 -5 -4
-10 3 -6 3 -20 -1 -33 -7 -21 -8 -21 -20 8 -7 17 -13 42 -14 58 0 15 -5 27
-11 27 -6 0 -9 7 -5 15 3 9 -3 19 -15 25 -18 10 -19 9 -13 -17 4 -15 10 -30
14 -33 11 -9 30 -111 40 -219 13 -130 13 -121 -7 -121 -14 0 -15 -2 -4 -9 8
-5 17 -39 22 -87 11 -106 11 -116 -1 -109 -16 10 -11 -4 9 -26 20 -21 35 -112
20 -117 -5 -2 -9 -8 -9 -13 0 -6 5 -7 10 -4 6 4 10 -6 11 -22 1 -85 12 -168
21 -174 7 -4 7 -9 -1 -13 -6 -4 -15 4 -21 18 -11 31 -20 35 -13 6 3 -11 1 -20
-5 -20 -16 0 -30 23 -37 63 -4 21 -13 37 -21 37 -10 0 -11 -6 -4 -25 7 -18 6
-25 -3 -25 -17 0 -34 45 -42 115 -11 89 -11 90 0 95 6 3 15 -24 21 -63 11 -64
19 -86 28 -76 4 4 -22 150 -28 156 -2 2 -13 5 -25 8 -14 2 -21 -1 -21 -11 0
-8 -4 -12 -10 -9 -5 3 -10 17 -10 29 0 13 -7 29 -15 36 -9 7 -22 27 -30 44
-19 37 -74 100 -82 92 -3 -3 5 -20 19 -38 42 -56 75 -130 87 -198 7 -36 17
-69 22 -74 5 -6 9 -21 9 -34 0 -13 5 -32 10 -43 8 -14 7 -19 -3 -19 -16 0 -57
41 -57 58 0 7 -7 12 -15 12 -8 0 -15 6 -15 13 0 9 -3 8 -9 -2 -7 -10 -15 -2
-34 30 -14 24 -31 56 -38 71 -7 16 -16 28 -21 28 -11 0 -10 -55 2 -105 11 -50
6 -55 -22 -19 -13 16 -38 45 -56 64 l-34 35 6 -28 c5 -19 2 -29 -9 -33 -23 -9
-18 -39 9 -52 26 -12 87 -84 102 -122 6 -14 7 -36 3 -50 -4 -14 -7 -42 -8 -62
-1 -24 -6 -38 -14 -38 -9 0 -14 -16 -15 -47 -2 -27 -5 -56 -8 -65 -3 -10 0
-18 6 -18 8 0 10 -9 6 -25 -5 -18 -2 -25 8 -25 15 0 32 -18 24 -25 -2 -2 -16
2 -32 10 l-27 15 6 -31 c8 -37 46 -77 98 -103 40 -21 60 -15 35 10 -12 12 -14
24 -8 45 8 26 6 32 -10 31 -3 0 -6 11 -7 25 0 15 -8 30 -17 35 -28 16 -51 145
-24 136 6 -2 19 -19 27 -36 11 -20 23 -32 37 -32 12 0 27 -7 34 -15 7 -8 27
-15 44 -15 18 0 47 -11 66 -25 42 -31 49 -25 25 20 -25 45 -14 54 35 26 43
-24 53 -16 20 14 -32 29 -18 27 49 -6 47 -23 65 -28 75 -20 7 6 22 8 32 4 16
-6 15 -3 -4 17 -26 29 -29 45 -4 35 44 -18 56 -19 49 -1 -7 19 -2 17 48 -18
17 -12 50 -30 75 -42 25 -12 52 -28 60 -35 17 -17 140 -59 173 -59 12 0 31 -7
41 -15 11 -8 28 -15 37 -15 10 0 19 -4 21 -10 2 -5 19 -11 38 -12 28 -2 35 0
34 14 -2 22 10 23 30 3 8 -8 19 -15 25 -15 6 0 11 -4 11 -9 0 -5 21 -19 46
-31 25 -13 48 -29 51 -36 2 -7 20 -18 38 -24 18 -6 52 -29 75 -50 24 -22 49
-40 57 -40 20 0 15 34 -7 48 -24 15 -26 29 -4 34 13 2 11 8 -10 33 -25 29 -32
45 -20 45 4 0 24 -18 45 -41 23 -25 43 -38 50 -33 9 5 10 2 6 -9 -4 -11 1 -18
14 -22 22 -7 21 -27 -2 -33 -11 -3 -11 -1 1 8 13 10 13 11 -2 6 -11 -3 -21 2
-27 12 -5 9 -13 14 -17 9 -4 -4 6 -18 22 -32 16 -14 31 -20 32 -15 6 16 22 11
22 -6 0 -13 3 -14 13 -5 17 13 27 5 27 -22 0 -66 92 -239 119 -223 13 8 20
-16 26 -92 3 -46 2 -58 -4 -37 -15 54 -30 85 -41 85 -5 0 -10 9 -10 19 0 12
-11 23 -30 30 -16 5 -30 16 -30 23 0 7 -16 28 -35 47 -55 54 -38 -4 27 -90 39
-51 45 -120 15 -177 -12 -23 -25 -42 -29 -42 -4 0 -12 15 -17 32 -5 18 -10 25
-10 16 -2 -39 -31 -10 -31 31 0 9 -23 37 -51 61 -28 24 -58 50 -65 58 -11 11
-14 11 -14 0 0 -7 23 -37 50 -67 54 -58 60 -71 33 -72 -11 0 -13 -3 -5 -6 6
-2 12 -12 12 -21 0 -15 2 -15 10 -2 9 13 11 13 20 0 21 -32 10 -38 -30 -15
-14 8 -35 14 -48 15 -14 0 -21 4 -16 11 4 8 -1 9 -16 4 -16 -5 -32 1 -60 24
-21 17 -43 31 -48 31 -5 0 -15 7 -22 15 -7 9 -19 14 -27 11 -7 -3 -13 1 -13 9
0 8 -4 15 -10 15 -21 0 -9 -26 20 -42 20 -11 28 -22 24 -32 -3 -9 -2 -16 4
-16 6 0 12 6 15 13 3 9 7 9 20 -2 10 -7 17 -16 17 -20 0 -8 -106 -4 -140 5
-14 4 -37 6 -51 5 -15 -1 -33 5 -42 13 -9 9 -21 16 -27 16 -7 0 -24 9 -40 20
-15 11 -55 33 -89 49 -34 16 -67 33 -74 38 -6 5 -28 16 -47 23 -19 7 -54 22
-77 33 -45 22 -70 17 -37 -8 37 -27 127 -69 147 -68 18 2 18 0 6 -12 -12 -12
-27 -9 -109 19 -198 70 -361 137 -380 156 -12 12 -51 30 -65 30 -8 0 -15 7
-15 15 0 18 4 18 48 6 20 -6 32 -6 32 0 0 5 -8 9 -17 9 -10 0 -33 14 -52 30
-35 31 -51 37 -51 20 0 -14 -27 -12 -59 5 -18 9 -30 25 -34 45 -5 23 -12 30
-29 30 -17 0 -19 3 -9 9 10 6 2 11 -26 16 -28 4 -54 20 -89 52 -27 26 -53 46
-58 44 -4 -1 -14 4 -22 10 -24 20 -25 4 -4 -45 11 -26 20 -52 20 -57 0 -6 13
-37 30 -71 16 -33 30 -64 30 -69 0 -15 -57 -10 -70 6 -7 8 -25 15 -41 15 -19
0 -29 -5 -29 -15 0 -17 -15 -19 -121 -16 -44 1 -80 -2 -83 -8 -7 -10 188 -111
216 -111 8 0 23 -10 34 -21 19 -21 19 -21 -11 -16 -16 3 -55 9 -85 12 -30 3
-79 11 -108 16 -52 11 -192 -5 -192 -21 0 -3 -27 -5 -60 -4 -33 1 -60 -2 -60
-7 0 -5 8 -9 18 -9 9 0 40 -11 67 -24 39 -19 45 -25 26 -25 -13 -1 -40 4 -60
9 -20 6 -85 14 -146 19 -60 4 -119 11 -130 15 -11 4 -4 -2 15 -15 19 -12 37
-24 40 -26 10 -8 -24 -21 -71 -26 -27 -3 -56 -13 -65 -22 -12 -11 -12 -15 -2
-16 39 -1 156 -19 253 -38 168 -34 258 -60 277 -82 20 -23 111 -73 151 -83 46
-11 31 -26 -20 -19 -33 4 -44 3 -39 -5 12 -20 173 -55 314 -69 34 -3 65 -10
68 -14 3 -5 -1 -9 -8 -9 -7 0 -24 -9 -38 -20 l-25 -20 59 0 c53 0 57 -1 45
-17 -8 -9 -13 -19 -12 -22 1 -3 -10 -4 -25 -3 -36 5 -34 5 -60 -3 -15 -5 -21
-13 -17 -23 9 -24 -5 -52 -26 -52 -10 0 -19 -4 -19 -10 0 -5 -6 -10 -14 -10
-7 0 -19 -7 -26 -15 -7 -8 -19 -14 -28 -13 -8 2 -17 -3 -19 -9 -4 -10 233 -13
1161 -13 l1166 0 0 3675 0 3675 -1347 0 -1348 -1 30 -25 c17 -15 22 -24 13
-21 -9 3 -34 9 -55 13 -21 3 -48 12 -60 20 -18 11 -114 14 -512 14 -454 0
-491 -2 -501 -18 -9 -16 -11 -16 -20 1 -10 16 -35 17 -298 17 l-287 -1 28 -20
c50 -38 38 -49 -93 -90 -41 -13 -76 -27 -78 -31 -2 -5 -8 -8 -14 -8 -14 0
-101 -42 -109 -52 -3 -5 -18 -9 -35 -10 -16 -1 -34 -9 -40 -17 -9 -12 -17 -13
-35 -4 l-24 11 30 13 c17 8 32 17 35 21 3 4 31 21 63 38 31 16 83 44 115 61
52 28 63 30 122 25 l65 -6 -42 22 c-24 12 -43 28 -43 35 0 11 -262 13 -1455
13 l-1455 0 0 -3675z m3630 3620 c0 -19 -10 -18 -34 0 -10 7 -15 18 -11 24 9
15 45 -5 45 -24z m360 25 c-19 -13 -30 -13 -30 0 0 6 10 10 23 10 18 0 19 -2
7 -10z m773 -64 c21 -17 64 -54 95 -82 31 -28 72 -61 89 -73 18 -12 36 -33 39
-47 4 -13 15 -29 25 -35 26 -13 24 -32 -2 -24 -19 6 -20 4 -14 -39 6 -39 5
-46 -9 -46 -22 0 -40 48 -25 66 14 17 4 48 -27 81 -18 20 -21 29 -12 34 8 5
-3 14 -32 27 -46 19 -84 52 -61 52 8 0 8 4 -1 14 -7 8 -16 12 -20 9 -5 -2 -8
1 -8 6 0 6 -8 11 -18 11 -20 0 -119 60 -126 77 -9 23 68 1 107 -31z m-590 14
c-3 -11 -7 -20 -9 -20 -2 0 -4 9 -4 20 0 11 4 20 9 20 5 0 7 -9 4 -20z m-43
-8 c0 -18 -4 -19 -47 -11 -26 5 -49 5 -52 1 -3 -4 -22 -9 -40 -10 -19 -2 -32
1 -27 5 13 13 70 28 119 31 41 3 47 0 47 -16z m204 3 c18 -14 12 -15 -62 -15
-85 0 -98 4 -59 20 34 14 100 11 121 -5z m-684 -5 c0 -5 -10 -10 -22 -10 -19
0 -20 2 -8 10 19 13 30 13 30 0z m250 0 c0 -6 -8 -14 -17 -17 -10 -4 -28 -17
-41 -31 -23 -24 -43 -25 -50 -2 -3 7 0 10 6 6 6 -3 30 7 54 23 50 35 48 34 48
21z m-610 -10 c0 -5 -5 -10 -11 -10 -5 0 -7 5 -4 10 3 6 8 10 11 10 2 0 4 -4
4 -10z m1140 -19 c0 -15 -29 -33 -41 -25 -9 5 -7 11 6 21 22 15 35 17 35 4z
m-1130 -11 c0 -5 -10 -10 -22 -9 -22 0 -22 1 -3 9 11 5 21 9 23 9 1 1 2 -3 2
-9z m1175 -10 c-3 -5 -10 -10 -16 -10 -5 0 -9 5 -9 10 0 6 7 10 16 10 8 0 12
-4 9 -10z m75 -12 c0 -6 -10 -8 -22 -4 -13 3 -27 6 -31 6 -5 0 -6 4 -3 9 7 11
56 2 56 -11z m-110 -8 c0 -5 -2 -10 -4 -10 -3 0 -8 5 -11 10 -3 6 -1 10 4 10
6 0 11 -4 11 -10z m-1203 -16 c-3 -3 -12 -4 -19 -1 -8 3 -5 6 6 6 11 1 17 -2
13 -5z m-44 -31 c-7 -2 -19 -2 -25 0 -7 3 -2 5 12 5 14 0 19 -2 13 -5z m87 -3
c0 -5 -2 -10 -4 -10 -3 0 -8 5 -11 10 -3 6 -1 10 4 10 6 0 11 -4 11 -10z
m1220 -10 c0 -5 -4 -10 -10 -10 -5 0 -10 5 -10 10 0 6 5 10 10 10 6 0 10 -4
10 -10z m81 -7 c13 -15 11 -16 -11 -10 -14 4 -29 7 -33 7 -5 0 -5 5 -2 10 9
15 31 12 46 -7z m-2176 -233 c-3 -5 -11 -10 -16 -10 -6 0 -19 -10 -29 -22 -10
-13 -22 -20 -26 -15 -11 11 36 57 58 57 11 0 16 -4 13 -10z m64 -73 c-22 -22
-53 -58 -67 -79 -14 -21 -30 -37 -36 -35 -20 7 -17 73 4 95 11 12 20 26 20 32
0 5 5 10 10 10 6 0 1 -18 -10 -40 -11 -22 -16 -40 -11 -40 5 0 11 4 13 10 2 5
21 29 42 53 27 31 45 43 58 39 16 -4 13 -10 -23 -45z m2846 33 c3 -5 1 -10 -4
-10 -6 0 -11 5 -11 10 0 6 2 10 4 10 3 0 8 -4 11 -10z m-55 -1230 c0 -5 -7
-10 -15 -10 -8 0 -15 5 -15 10 0 6 7 10 15 10 8 0 15 -4 15 -10z m-2780 -201
c0 -6 -4 -7 -10 -4 -5 3 -10 11 -10 16 0 6 5 7 10 4 6 -3 10 -11 10 -16z m197
-1276 c12 -16 7 -43 -9 -43 -5 0 -7 3 -5 8 3 4 -1 13 -9 20 -12 11 -14 9 -14
-7 0 -19 -18 -31 -46 -31 -24 0 -5 20 19 21 22 0 22 1 -2 12 -20 9 -26 8 -40
-10 -23 -28 -81 -41 -81 -18 0 9 13 21 30 26 17 6 30 15 30 21 0 5 4 7 9 3 5
-3 12 -1 16 5 4 7 13 7 26 -1 12 -6 23 -8 27 -5 3 3 0 6 -6 6 -7 0 -12 5 -12
11 0 16 52 2 67 -18z m63 -13 c-24 -15 -37 -11 -16 5 11 8 22 12 25 9 3 -3 -1
-9 -9 -14z m205 -100 c-3 -6 -17 -7 -30 -4 -18 4 -26 0 -35 -17 -12 -21 -14
-21 -25 -6 -7 10 -19 15 -27 12 -8 -3 -20 0 -26 8 -10 11 2 14 69 15 51 1 78
-2 74 -8z m-930 -10 c3 -5 1 -10 -4 -10 -6 0 -11 5 -11 10 0 6 2 10 4 10 3 0
8 -4 11 -10z m155 -5 c0 -8 9 -15 20 -15 11 0 20 -4 20 -10 0 -15 -58 -12 -63
3 -3 9 -7 9 -19 -1 -10 -8 -19 -9 -22 -3 -3 5 -15 7 -26 4 -14 -4 -20 0 -20
10 0 10 12 17 33 20 67 8 77 7 77 -8z m67 9 c-3 -3 -12 -4 -19 -1 -8 3 -5 6 6
6 11 1 17 -2 13 -5z m771 -11 c37 -17 37 -17 9 -21 -24 -3 -57 15 -57 32 0 9
8 7 48 -11z m-694 -12 c4 0 6 -10 3 -20 -4 -17 4 -22 66 -36 45 -10 89 -14
118 -10 34 5 48 3 51 -7 4 -10 -10 -14 -57 -16 -44 -2 -77 -10 -109 -27 -50
-27 -66 -30 -66 -16 0 5 10 11 23 15 18 5 19 8 7 16 -8 5 -34 12 -57 16 -24 3
-40 10 -38 15 7 10 -26 28 -42 22 -6 -2 -15 1 -19 8 -5 9 -2 10 10 6 13 -5 19
-1 23 12 3 13 10 18 21 14 10 -4 13 -2 8 5 -6 10 3 10 58 3z m43 -27 c-3 -3
-12 -4 -19 -1 -8 3 -5 6 6 6 11 1 17 -2 13 -5z m753 -3 c0 -12 -20 -25 -27
-18 -7 7 6 27 18 27 5 0 9 -4 9 -9z m2002 -63 c-6 -6 -24 -7 -44 -2 -32 7 -32
8 -8 14 32 8 65 1 52 -12z m198 12 c10 -5 33 -12 51 -14 57 -8 178 -56 212
-84 9 -8 17 -12 17 -9 0 3 13 1 29 -4 27 -9 56 -51 44 -62 -5 -5 -53 12 -63
23 -19 20 -90 60 -106 60 -11 0 -30 9 -43 21 -18 17 -25 18 -37 8 -12 -10 -21
-9 -44 5 -33 19 -108 16 -121 -5 -10 -17 -39 -3 -39 18 0 13 -2 15 -8 5 -10
-15 -55 -2 -67 19 -6 9 1 10 29 5 29 -6 36 -4 36 9 0 11 11 15 46 15 25 0 54
-4 64 -10z m-3109 -35 c-1 -15 -24 -12 -29 3 -3 9 2 13 12 10 10 -1 17 -7 17
-13z m2786 9 c-3 -3 -12 -4 -19 -1 -8 3 -5 6 6 6 11 1 17 -2 13 -5z m-2827
-11 c0 -10 -49 -33 -68 -33 -7 0 -10 -4 -7 -10 3 -5 1 -10 -4 -10 -24 0 -9 32
22 45 36 16 57 19 57 8z m947 -59 c-9 -9 -28 6 -21 18 4 6 10 6 17 -1 6 -6 8
-13 4 -17z m138 16 c3 -5 -1 -10 -9 -10 -9 0 -16 5 -16 10 0 6 4 10 9 10 6 0
13 -4 16 -10z m-45 -30 c0 -4 -7 -13 -15 -20 -13 -11 -15 -8 -15 13 0 19 4 25
15 21 8 -4 15 -10 15 -14z m68 -9 c3 -8 -1 -12 -9 -9 -7 2 -15 10 -17 17 -3 8
1 12 9 9 7 -2 15 -10 17 -17z m-40 -20 c3 -8 -1 -12 -9 -9 -7 2 -15 10 -17 17
-3 8 1 12 9 9 7 -2 15 -10 17 -17z m32 -21 c0 -5 -2 -10 -4 -10 -3 0 -8 5 -11
10 -3 6 -1 10 4 10 6 0 11 -4 11 -10z m2450 -26 c0 -14 -3 -14 -15 -4 -8 7
-15 14 -15 16 0 2 7 4 15 4 8 0 15 -7 15 -16z m-1540 -69 c-7 -9 -15 -13 -17
-11 -7 7 7 26 19 26 6 0 6 -6 -2 -15z m1651 -166 c19 -16 20 -18 4 -10 -34 17
-51 31 -39 31 7 0 22 -9 35 -21z m-4071 -129 c0 -5 -5 -10 -11 -10 -5 0 -7 5
-4 10 3 6 8 10 11 10 2 0 4 -4 4 -10z m4174 -47 c3 -7 2 -13 -1 -13 -10 0 -43
32 -43 42 0 11 38 -14 44 -29z m-4316 -262 c-15 -5 -19 4 -11 24 6 18 7 18 13
-1 4 -10 3 -21 -2 -23z m4449 4 c8 -9 12 -19 9 -23 -4 -3 -12 0 -17 8 -8 11
-12 12 -16 2 -2 -6 -9 -9 -14 -6 -6 3 -5 11 2 20 14 18 17 18 36 -1z m80 -61
c7 -19 -11 -39 -27 -29 -9 6 -9 10 1 16 11 7 11 9 1 9 -7 0 -10 5 -7 10 9 15
25 12 32 -6z m24 -57 c-10 -9 -11 -8 -5 6 3 10 9 15 12 12 3 -3 0 -11 -7 -18z
m-16 -127 c3 -5 1 -10 -4 -10 -6 0 -11 5 -11 10 0 6 2 10 4 10 3 0 8 -4 11
-10z m213 -335 c-3 -3 -9 2 -12 12 -6 14 -5 15 5 6 7 -7 10 -15 7 -18z m-4988
-55 c0 -5 -7 -7 -15 -4 -8 4 -15 8 -15 10 0 2 7 4 15 4 8 0 15 -4 15 -10z
m4944 1 c3 -5 0 -11 -8 -14 -15 -6 -26 1 -26 15 0 11 27 10 34 -1z m-4070 -66
c-4 -8 -11 -15 -16 -15 -6 0 -5 6 2 15 7 8 14 15 16 15 2 0 1 -7 -2 -15z
m3330 -87 c4 -18 7 -43 6 -55 0 -13 5 -23 10 -23 5 0 7 -6 4 -14 -11 -29 -30
-4 -41 52 -5 31 -8 60 -6 65 9 16 21 5 27 -25z m-4214 -84 c0 -14 -4 -23 -9
-20 -5 3 -7 15 -4 26 7 28 13 25 13 -6z m662 11 c0 -5 -5 -11 -11 -13 -6 -2
-11 4 -11 13 0 9 5 15 11 13 6 -2 11 -8 11 -13z m4392 -31 c3 -8 2 -12 -4 -9
-6 3 -10 10 -10 16 0 14 7 11 14 -7z m-64 -39 c0 -8 -4 -15 -10 -15 -5 0 -10
7 -10 15 0 8 5 15 10 15 6 0 10 -7 10 -15z m-4187 -272 c3 -5 -2 -53 -9 -108
-7 -55 -14 -104 -14 -110 0 -5 -4 -3 -9 5 -6 8 -8 26 -6 40 3 14 7 60 11 103
5 69 14 92 27 70z m4237 -33 c0 -5 -5 -10 -11 -10 -5 0 -7 5 -4 10 3 6 8 10
11 10 2 0 4 -4 4 -10z m-970 -114 c0 -8 -4 -17 -9 -21 -12 -7 -24 12 -16 25 9
15 25 12 25 -4z m7 -83 c-3 -10 -5 -4 -5 12 0 17 2 24 5 18 2 -7 2 -21 0 -30z
m193 -34 c0 -5 -4 -9 -10 -9 -5 0 -10 7 -10 16 0 8 5 12 10 9 6 -3 10 -10 10
-16z m32 -34 c20 -8 15 -99 -6 -103 -17 -4 -32 38 -23 62 3 8 1 17 -6 20 -9 3
-8 8 3 15 18 13 15 12 32 6z m-4455 -207 c-3 -8 -6 -5 -6 6 -1 11 2 17 5 13 3
-3 4 -12 1 -19z m163 -108 c0 -5 -5 -10 -11 -10 -5 0 -7 5 -4 10 3 6 8 10 11
10 2 0 4 -4 4 -10z m4895 -8 c-3 -3 -11 0 -18 7 -9 10 -8 11 6 5 10 -3 15 -9
12 -12z m-4820 -42 c-3 -5 -11 -10 -16 -10 -6 0 -7 5 -4 10 3 6 11 10 16 10 6
0 7 -4 4 -10z m795 -420 c0 -5 -4 -10 -10 -10 -5 0 -10 -7 -10 -15 0 -8 -7
-15 -15 -15 -14 0 -13 3 1 25 17 25 34 33 34 15z m3167 -16 c-3 -3 -12 -4 -19
-1 -8 3 -5 6 6 6 11 1 17 -2 13 -5z m-3342 -84 c-27 -12 -43 -12 -25 0 8 5 22
9 30 9 10 0 8 -3 -5 -9z m3555 -17 l25 -14 -25 7 c-41 11 -70 23 -70 29 0 8
39 -4 70 -22z m-3600 -3 c0 -5 -2 -10 -4 -10 -2 0 -12 -3 -22 -7 -16 -6 -17
-5 -4 10 17 19 30 22 30 7z m-514 -155 c-8 -8 -21 -15 -28 -15 -8 1 -6 6 6 15
26 20 42 19 22 0z m4629 -5 c3 -5 2 -10 -4 -10 -5 0 -13 5 -16 10 -3 6 -2 10
4 10 5 0 13 -4 16 -10z m-4700 -20 c-3 -5 -11 -10 -16 -10 -6 0 -7 5 -4 10 3
6 11 10 16 10 6 0 7 -4 4 -10z m4765 0 c0 -5 -4 -10 -9 -10 -6 0 -13 5 -16 10
-3 6 1 10 9 10 9 0 16 -4 16 -10z m-515 -20 c8 -13 -5 -13 -25 0 -13 8 -13 10
2 10 9 0 20 -4 23 -10z m-4012 -57 c-7 -2 -21 -2 -30 0 -10 3 -4 5 12 5 17 0
24 -2 18 -5z m4277 -8 c7 -8 9 -15 6 -15 -4 0 -14 7 -22 15 -9 8 -11 15 -6 15
5 0 15 -7 22 -15z m95 -16 c5 -5 0 -9 -12 -9 -28 0 -53 10 -53 21 0 11 50 1
65 -12z m-4415 1 c0 -5 -14 -10 -31 -10 -17 0 -28 4 -24 10 3 6 17 10 31 10
13 0 24 -4 24 -10z m-80 -10 c0 -5 -7 -10 -15 -10 -8 0 -15 5 -15 10 0 6 7 10
15 10 8 0 15 -4 15 -10z m4557 -5 c20 -8 33 -18 30 -21 -6 -7 -77 23 -77 31 0
8 9 6 47 -10z m-4600 -10 c0 -8 -7 -15 -15 -15 -12 0 -12 3 -2 15 7 8 13 15
15 15 1 0 2 -7 2 -15z"/>
<path d="M4950 7070 c0 -5 5 -10 11 -10 5 0 7 5 4 10 -3 6 -8 10 -11 10 -2 0
-4 -4 -4 -10z"/>
<path d="M5240 3901 c27 -23 40 -26 40 -11 0 5 6 8 13 6 33 -11 77 -15 73 -7
-3 5 -25 11 -48 14 -24 4 -56 9 -73 12 l-30 7 25 -21z"/>
<path d="M5600 3796 c0 -2 7 -7 16 -10 8 -3 12 -2 9 4 -6 10 -25 14 -25 6z"/>
<path d="M3420 7176 c0 -17 23 -20 55 -6 13 6 15 9 5 9 -8 1 -25 4 -37 7 -17
5 -23 2 -23 -10z"/>
<path d="M4145 7110 c-10 -11 -14 -20 -9 -20 12 1 44 25 44 34 0 12 -17 6 -35
-14z"/>
<path d="M4250 7120 c0 -5 5 -10 11 -10 5 0 7 5 4 10 -3 6 -8 10 -11 10 -2 0
-4 -4 -4 -10z"/>
<path d="M4375 7120 c-8 -13 4 -32 16 -25 5 4 9 1 9 -5 0 -7 7 -10 15 -7 8 4
17 2 20 -3 4 -6 25 -10 48 -10 l42 0 -27 14 c-15 8 -42 17 -60 21 -18 4 -38
12 -45 17 -7 6 -14 5 -18 -2z"/>
<path d="M4320 7112 c0 -4 9 -8 20 -9 11 -1 20 2 20 8 0 5 -9 9 -20 9 -11 0
-20 -4 -20 -8z"/>
<path d="M4188 7087 c7 -8 9 -17 5 -21 -4 -4 20 -6 52 -5 33 1 65 0 70 -1 17
-4 35 0 35 8 0 4 -12 8 -26 9 -15 0 -29 5 -33 10 -3 4 -30 9 -60 11 -45 2 -52
1 -43 -11z"/>
<path d="M3816 7074 c-5 -12 -2 -15 10 -10 8 3 18 6 20 6 3 0 2 5 -1 10 -9 15
-22 12 -29 -6z"/>
<path d="M3898 7073 c12 -2 30 -2 40 0 9 3 -1 5 -23 4 -22 0 -30 -2 -17 -4z"/>
<path d="M4150 7070 c-13 -8 -12 -10 3 -10 9 0 17 5 17 10 0 12 -1 12 -20 0z"/>
<path d="M2410 6980 c-13 -8 -13 -10 2 -10 9 0 20 5 23 10 8 13 -5 13 -25 0z"/>
<path d="M3513 6953 c15 -2 37 -2 50 0 12 2 0 4 -28 4 -27 0 -38 -2 -22 -4z"/>
<path d="M4510 6950 l-55 -7 63 -1 c34 -1 62 -6 62 -12 0 -5 9 -10 20 -10 11
0 20 5 20 10 0 6 -7 10 -15 10 -8 0 -15 5 -15 10 0 6 -6 9 -12 8 -7 -1 -38 -4
-68 -8z"/>
<path d="M3318 6943 c6 -2 18 -2 25 0 6 3 1 5 -13 5 -14 0 -19 -2 -12 -5z"/>
<path d="M4368 6943 c7 -3 16 -2 19 1 4 3 -2 6 -13 5 -11 0 -14 -3 -6 -6z"/>
<path d="M4685 6860 c3 -5 8 -10 11 -10 2 0 4 5 4 10 0 6 -5 10 -11 10 -5 0
-7 -4 -4 -10z"/>
<path d="M5095 6830 c-3 -6 1 -7 9 -4 18 7 21 14 7 14 -6 0 -13 -4 -16 -10z"/>
<path d="M3982 6770 c-35 -5 -79 -14 -99 -21 -25 -8 -38 -8 -46 0 -6 6 -17 11
-25 11 -12 0 -12 -2 -1 -17 13 -15 11 -16 -12 -10 -25 6 -93 -23 -190 -82 -48
-30 -78 -26 -156 18 -38 21 -103 51 -145 65 -69 24 -85 26 -150 19 l-73 -9 40
-19 40 -20 -48 -5 c-26 -3 -47 -9 -47 -15 0 -10 47 -11 126 -2 32 4 51 -1 86
-22 65 -38 128 -98 128 -122 0 -11 5 -17 10 -14 6 3 10 19 10 36 0 33 4 35 54
14 20 -8 36 -12 36 -7 0 4 18 6 40 4 24 -3 49 2 63 10 45 29 62 29 27 -1 -48
-40 -33 -48 31 -17 29 14 58 26 65 26 7 0 17 7 22 17 6 9 16 14 25 10 15 -6
15 -10 2 -48 -8 -23 -15 -45 -15 -50 0 -4 25 16 56 46 59 58 84 66 141 44 28
-10 28 -10 -6 22 -30 27 -32 32 -18 41 11 6 25 5 39 -3 13 -7 39 -16 58 -20
19 -5 47 -11 63 -15 33 -8 36 8 6 39 l-20 22 27 3 c15 2 30 -1 33 -6 3 -5 15
-11 26 -14 11 -3 29 -9 40 -13 16 -5 17 -5 5 4 -8 6 -10 11 -4 11 5 0 38 -18
71 -40 62 -40 96 -76 87 -92 -3 -4 0 -8 5 -8 6 0 11 6 11 13 0 6 5 4 11 -5 5
-10 14 -18 19 -18 14 0 -27 68 -70 117 -93 106 -214 145 -378 123z"/>
<path d="M5202 6767 c-32 -10 -122 -102 -122 -125 0 -6 -9 -27 -21 -47 -15
-25 -19 -45 -15 -68 3 -17 8 -42 10 -55 2 -13 8 -28 14 -34 8 -8 8 -17 1 -30
-7 -13 -6 -18 2 -18 7 0 9 -3 6 -6 -4 -4 -13 -1 -22 6 -23 19 -31 3 -10 -20
10 -11 13 -20 7 -20 -7 0 -12 -4 -12 -10 0 -5 7 -7 15 -4 8 4 15 2 15 -4 0 -6
-6 -13 -12 -15 -7 -3 -3 -6 9 -6 36 -1 36 -20 1 -30 -18 -5 -25 -10 -16 -10
11 -1 15 -6 12 -16 -5 -12 1 -14 27 -11 79 10 101 32 83 80 -5 14 -8 14 -29 0
-22 -14 -23 -14 -18 5 3 12 14 21 25 21 11 0 16 5 13 10 -4 6 -14 8 -23 6 -19
-6 -50 9 -39 20 3 4 31 7 60 8 56 0 87 -17 87 -48 0 -8 5 -18 11 -22 9 -5 10
1 5 22 -11 42 -64 93 -111 106 -22 6 -50 22 -62 35 -22 23 -22 25 -7 48 9 14
20 25 24 25 5 0 16 7 25 16 15 15 18 15 37 -2 19 -17 21 -17 15 -1 -4 9 -2 17
3 17 6 0 10 -6 10 -12 1 -7 7 -2 14 11 7 12 11 34 8 47 -5 27 14 33 20 7 3
-13 9 -7 21 20 14 33 19 37 36 27 44 -23 78 -88 115 -222 9 -32 19 -58 22 -58
17 0 -69 259 -103 312 -32 48 -75 63 -131 45z m-32 -465 c0 -12 -23 -32 -37
-32 -7 0 -13 5 -13 10 0 6 7 10 15 10 8 0 15 5 15 10 0 6 5 10 10 10 6 0 10
-4 10 -8z"/>
<path d="M3848 6763 c7 -3 16 -2 19 1 4 3 -2 6 -13 5 -11 0 -14 -3 -6 -6z"/>
<path d="M2975 6750 c-4 -6 6 -10 22 -11 15 0 21 -3 13 -5 -71 -23 -100 -38
-100 -50 0 -8 5 -14 11 -14 5 0 7 5 4 10 -4 6 5 10 19 10 31 0 35 -15 6 -23
-11 -3 -20 -12 -20 -21 0 -12 11 -8 46 16 32 22 42 33 33 39 -9 5 -4 10 17 14
56 13 57 14 40 30 -16 17 -81 20 -91 5z"/>
<path d="M2870 6699 c0 -5 5 -7 10 -4 6 3 10 8 10 11 0 2 -4 4 -10 4 -5 0 -10
-5 -10 -11z"/>
<path d="M2475 6689 c-4 -6 -5 -13 -2 -16 7 -7 27 6 27 18 0 12 -17 12 -25 -2z"/>
<path d="M2845 6639 c-10 -15 1 -23 20 -15 9 3 13 10 10 16 -8 13 -22 13 -30
-1z"/>
<path d="M3227 6633 c-14 -13 -6 -25 13 -20 26 7 113 -52 116 -78 1 -11 11
-47 23 -79 l21 -60 -22 -23 c-12 -13 -17 -23 -11 -23 6 0 13 7 17 15 3 8 17
15 31 15 25 0 26 2 20 33 -4 17 -13 39 -21 48 -8 8 -14 25 -14 36 0 31 -110
143 -141 143 -14 0 -29 -3 -32 -7z"/>
<path d="M3200 6614 c0 -8 -4 -12 -10 -9 -5 3 -20 -3 -32 -14 -26 -25 -18 -27
22 -6 17 9 30 22 30 30 0 8 -2 15 -5 15 -3 0 -5 -7 -5 -16z"/>
<path d="M3165 6505 c-5 -2 -35 -10 -65 -19 -78 -24 -160 -57 -160 -66 0 -6
44 -30 54 -30 2 0 6 10 10 23 4 19 18 26 73 39 72 17 83 16 83 -9 0 -8 7 -30
16 -48 15 -33 16 -33 72 -29 71 5 122 21 122 38 0 32 -43 66 -107 86 -64 20
-78 22 -98 15z m116 -94 c17 9 20 8 17 -3 -7 -20 -53 -22 -69 -2 -13 16 -12
16 9 5 16 -9 27 -9 43 0z"/>
<path d="M3435 6500 c3 -5 8 -10 11 -10 2 0 4 5 4 10 0 6 -5 10 -11 10 -5 0
-7 -4 -4 -10z"/>
<path d="M4015 6494 c-11 -3 -35 -12 -53 -20 -18 -8 -49 -16 -68 -17 -37 -3
-67 -29 -58 -50 7 -19 84 -20 84 -2 0 15 51 41 107 55 28 7 31 5 37 -21 3 -15
14 -33 26 -39 20 -11 30 3 10 15 -5 3 -10 10 -10 16 0 5 5 9 10 9 6 0 10 -7
10 -15 0 -9 7 -18 15 -21 8 -4 15 -10 15 -15 0 -5 -7 -9 -15 -9 -8 0 -15 -4
-15 -8 0 -20 83 1 126 31 l45 31 -57 29 c-55 28 -160 43 -209 31z"/>
<path d="M4066 6383 c-11 -11 -6 -23 9 -23 8 0 15 4 15 9 0 13 -16 22 -24 14z"/>
<path d="M5440 6347 c4 -41 5 -41 8 -8 2 18 0 37 -5 42 -5 5 -6 -11 -3 -34z"/>
<path d="M3120 6360 c14 -4 32 -8 40 -9 13 -1 13 0 0 9 -8 5 -26 9 -40 9 l-25
-1 25 -8z"/>
<path d="M4080 6289 c0 -5 5 -7 10 -4 6 3 10 8 10 11 0 2 -4 4 -10 4 -5 0 -10
-5 -10 -11z"/>
<path d="M5040 6190 c0 -5 7 -10 16 -10 12 0 15 -6 10 -22 -4 -13 -8 -30 -9
-38 -1 -8 -9 -20 -17 -27 -20 -15 -10 -23 17 -12 27 10 44 96 22 110 -19 12
-39 11 -39 -1z"/>
<path d="M3275 6060 c-4 -7 -2 -17 5 -23 10 -9 11 -9 5 2 -6 11 -4 13 9 8 11
-5 16 -3 14 5 -6 17 -25 21 -33 8z"/>
<path d="M5045 6050 c-3 -5 1 -10 9 -10 9 0 16 5 16 10 0 6 -4 10 -9 10 -6 0
-13 -4 -16 -10z"/>
<path d="M2321 6034 c0 -11 3 -14 6 -6 3 7 2 16 -1 19 -3 4 -6 -2 -5 -13z"/>
<path d="M5315 6033 c-16 -9 -32 -20 -35 -24 -14 -21 -130 -29 -130 -9 0 5 -9
8 -20 7 -11 -1 -20 -4 -20 -7 0 -9 53 -56 78 -69 26 -14 72 -14 72 -1 0 6 7
10 15 10 8 0 26 18 40 40 14 22 30 40 35 40 6 0 10 7 10 15 0 19 -7 18 -45 -2z"/>
<path d="M3230 5988 c-40 -46 -54 -72 -19 -37 13 13 34 34 47 46 13 11 19 23
15 26 -4 2 -24 -13 -43 -35z"/>
<path d="M3880 6021 c0 -5 5 -13 10 -16 6 -3 10 -2 10 4 0 5 -4 13 -10 16 -5
3 -10 2 -10 -4z"/>
<path d="M2351 5964 c0 -11 3 -14 6 -6 3 7 2 16 -1 19 -3 4 -6 -2 -5 -13z"/>
<path d="M5050 5865 c0 -16 9 -19 34 -9 20 8 11 24 -15 24 -10 0 -19 -7 -19
-15z"/>
<path d="M3573 5844 c-18 -9 -33 -23 -33 -30 0 -7 -9 -18 -20 -24 -17 -9 -60
-77 -60 -95 0 -5 48 4 63 12 4 3 3 11 -3 18 -9 10 -6 15 11 20 13 5 25 2 30
-6 6 -10 11 -6 18 14 7 17 18 27 31 27 15 0 20 7 20 25 0 18 -5 25 -19 25 -11
0 -23 -4 -26 -10 -8 -13 -25 -13 -25 0 0 5 16 12 35 16 19 3 38 10 41 15 8 14
-28 10 -63 -7z"/>
<path d="M3315 5840 c-23 -38 40 -150 84 -150 29 0 32 12 16 66 -19 62 -27 74
-53 79 -12 2 -26 6 -31 10 -5 3 -13 1 -16 -5z"/>
<path d="M3640 5820 c0 -5 5 -10 10 -10 6 0 10 5 10 10 0 6 -4 10 -10 10 -5 0
-10 -4 -10 -10z"/>
<path d="M4810 5785 c-6 -8 -10 -22 -8 -32 4 -20 39 -25 45 -6 3 7 -4 10 -19
7 l-23 -5 23 10 c12 6 22 15 22 20 0 16 -28 20 -40 6z"/>
<path d="M3040 5666 c-15 -39 -12 -46 6 -13 9 16 13 31 10 34 -3 3 -10 -6 -16
-21z"/>
<path d="M4732 5683 c-19 -4 -21 -7 -11 -19 12 -14 51 -19 62 -7 7 7 -11 34
-22 32 -3 -1 -16 -4 -29 -6z"/>
<path d="M4733 5626 c-23 -11 -30 -30 -15 -40 5 -3 15 4 22 15 8 10 22 19 32
19 10 0 18 5 18 10 0 13 -28 11 -57 -4z"/>
<path d="M4711 5562 c-1 -7 4 -22 10 -33 9 -17 7 -19 -13 -14 -36 8 -51 -7
-43 -44 7 -31 35 -44 35 -16 0 13 19 19 57 18 8 -1 6 9 -7 27 -11 15 -24 38
-29 51 -5 13 -10 18 -10 11z"/>
<path d="M4657 5414 c-12 -12 -8 -41 7 -53 11 -9 15 -7 19 11 7 23 -13 54 -26
42z"/>
<path d="M4600 5377 c0 -8 3 -17 8 -21 10 -11 9 -60 -3 -69 -6 -5 -2 -6 8 -3
10 3 25 6 33 6 20 0 8 70 -15 87 -21 16 -31 16 -31 0z"/>
<path d="M4605 5250 c-3 -10 -8 -42 -10 -71 -4 -45 -3 -50 10 -39 11 9 14 23
9 45 -4 22 -1 35 10 44 9 8 16 20 16 27 0 21 -28 17 -35 -6z"/>
<path d="M4216 5206 c-21 -33 -125 -90 -214 -116 -39 -12 -75 -26 -78 -31 -7
-11 0 -11 56 2 25 6 56 13 70 15 14 3 33 7 43 10 22 7 21 2 -3 -38 -36 -59
-21 -53 25 10 25 34 51 62 58 62 22 1 65 47 72 79 8 37 -6 41 -29 7z"/>
<path d="M2880 5143 c0 -5 10 -19 21 -33 11 -14 35 -49 54 -77 32 -49 47 -64
44 -45 -4 22 4 23 25 3 14 -13 29 -20 35 -16 8 4 5 12 -8 23 -26 23 -56 72
-44 72 6 0 23 -7 40 -15 16 -8 52 -17 79 -20 l49 -4 -46 9 c-26 6 -80 30 -120
54 -72 42 -129 64 -129 49z"/>
<path d="M4591 5084 c0 -11 3 -14 6 -6 3 7 2 16 -1 19 -3 4 -6 -2 -5 -13z"/>
<path d="M2445 5050 c-4 -6 1 -17 11 -25 14 -10 21 -10 26 -2 4 7 2 14 -5 16
-7 2 -15 8 -18 14 -4 5 -9 4 -14 -3z"/>
<path d="M3798 5033 c7 -3 16 -2 19 1 4 3 -2 6 -13 5 -11 0 -14 -3 -6 -6z"/>
<path d="M3235 5015 c68 -16 358 -20 415 -6 30 7 24 8 -35 8 -38 0 -153 2
-255 6 -174 6 -181 5 -125 -8z"/>
<path d="M3748 5023 c6 -2 18 -2 25 0 6 3 1 5 -13 5 -14 0 -19 -2 -12 -5z"/>
<path d="M3964 4955 c-17 -13 -17 -14 -2 -15 9 0 20 5 23 11 11 17 0 20 -21 4z"/>
<path d="M2482 4941 c-8 -5 -12 -17 -10 -27 2 -15 5 -13 15 9 14 30 14 30 -5
18z"/>
<path d="M3164 4929 c-5 -9 21 -19 47 -19 10 0 19 -5 19 -11 0 -6 6 -9 13 -6
6 2 12 12 12 22 0 14 -9 18 -43 19 -24 0 -46 -2 -48 -5z"/>
<path d="M3876 4921 c-10 -15 22 -20 34 -5 10 11 9 14 -8 14 -12 0 -23 -4 -26
-9z"/>
<path d="M3360 4899 c0 -5 5 -7 10 -4 6 3 10 8 10 11 0 2 -4 4 -10 4 -5 0 -10
-5 -10 -11z"/>
<path d="M5170 4870 c1 -21 38 -119 43 -114 14 14 7 46 -18 82 -14 20 -25 34
-25 32z"/>
<path d="M2527 4814 c-4 -4 -7 -20 -7 -35 0 -22 4 -26 20 -22 11 3 20 11 20
17 0 18 -25 48 -33 40z"/>
<path d="M2601 4682 c12 -35 29 -52 29 -29 0 8 -9 25 -20 38 l-20 24 11 -33z"/>
<path d="M5114 4592 c0 -29 5 -38 18 -38 14 0 16 6 11 26 -4 13 -12 30 -18 37
-10 9 -12 4 -11 -25z"/>
<path d="M5086 4595 c4 -8 11 -15 16 -15 6 0 5 6 -2 15 -7 8 -14 15 -16 15 -2
0 -1 -7 2 -15z"/>
<path d="M2704 4486 c-11 -8 -15 -18 -10 -23 5 -4 11 -2 13 5 3 6 14 12 24 12
11 0 17 5 14 10 -8 14 -18 13 -41 -4z"/>
<path d="M3304 4471 c4 -6 15 -11 25 -11 9 0 22 -5 28 -11 7 -7 63 -14 135
-17 129 -5 160 4 44 13 -72 5 -189 22 -220 31 -12 4 -16 2 -12 -5z"/>
<path d="M5020 4431 c0 -5 5 -13 10 -16 6 -3 10 -2 10 4 0 5 -4 13 -10 16 -5
3 -10 2 -10 -4z"/>
<path d="M4985 4410 c3 -5 8 -10 11 -10 2 0 4 5 4 10 0 6 -5 10 -11 10 -5 0
-7 -4 -4 -10z"/>
<path d="M4938 4353 c6 -2 12 -11 12 -19 0 -8 5 -14 10 -14 7 0 7 6 0 20 -6
11 -16 20 -23 19 -9 0 -9 -2 1 -6z"/>
<path d="M4940 4240 c0 -5 5 -10 11 -10 5 0 7 5 4 10 -3 6 -8 10 -11 10 -2 0
-4 -4 -4 -10z"/>
<path d="M2575 4219 c-4 -6 -5 -12 -2 -15 2 -3 7 2 10 11 7 17 1 20 -8 4z"/>
<path d="M4439 3890 c-13 -10 -19 -19 -13 -20 6 0 21 9 34 20 30 26 10 26 -21
0z"/>
<path d="M3180 3890 c-13 -8 -12 -10 3 -10 9 0 17 5 17 10 0 12 -1 12 -20 0z"/>
<path d="M4375 3854 c-9 -9 -13 -19 -10 -22 3 -3 15 4 28 16 12 12 16 22 10
22 -6 0 -19 -7 -28 -16z"/>
<path d="M4747 3836 c-4 -10 -13 -16 -21 -13 -8 3 -17 -1 -20 -10 -5 -13 -1
-14 26 -8 18 4 49 11 68 15 19 4 28 8 18 9 -9 0 -19 7 -21 14 -4 10 -6 10 -6
0 -1 -16 -28 -17 -33 -1 -3 7 -7 5 -11 -6z"/>
<path d="M4655 3800 c-3 -5 -1 -10 4 -10 6 0 11 5 11 10 0 6 -2 10 -4 10 -3 0
-8 -4 -11 -10z"/>
<path d="M2175 3780 c-3 -5 -1 -10 4 -10 6 0 11 5 11 10 0 6 -2 10 -4 10 -3 0
-8 -4 -11 -10z"/>
<path d="M2094 3466 c-26 -14 -58 -45 -52 -52 7 -7 38 7 38 17 0 5 6 9 14 9 8
0 17 7 20 16 8 22 5 23 -20 10z"/>
<path d="M5490 3440 c0 -5 4 -10 9 -10 6 0 13 5 16 10 3 6 -1 10 -9 10 -9 0
-16 -4 -16 -10z"/>
<path d="M5527 3433 c-4 -3 2 -13 14 -21 26 -18 32 -12 9 10 -9 10 -20 15 -23
11z"/>
<path d="M1985 3407 c-38 -23 -48 -38 -37 -49 8 -8 15 -8 25 0 8 7 17 9 20 5
4 -3 7 1 7 10 0 10 5 17 10 17 6 0 10 7 10 15 0 18 -8 18 -35 2z"/>
<path d="M5585 3400 c-3 -5 3 -19 13 -30 15 -16 24 -19 43 -11 24 9 24 9 -8
21 -18 7 -30 16 -27 21 3 5 1 9 -5 9 -5 0 -13 -4 -16 -10z"/>
<path d="M1831 3374 c0 -11 3 -14 6 -6 3 7 2 16 -1 19 -3 4 -6 -2 -5 -13z"/>
<path d="M1790 3345 c-17 -21 -9 -27 13 -10 10 7 14 16 9 19 -5 3 -15 -1 -22
-9z"/>
<path d="M3930 3320 c0 -5 5 -10 10 -10 6 0 10 5 10 10 0 6 -4 10 -10 10 -5 0
-10 -4 -10 -10z"/>
<path d="M1757 3273 c-4 -3 -7 -13 -7 -21 0 -12 3 -12 15 -2 8 7 15 16 15 21
0 11 -14 12 -23 2z"/>
<path d="M3880 3234 c0 -8 5 -12 10 -9 6 3 10 10 10 16 0 5 -4 9 -10 9 -5 0
-10 -7 -10 -16z"/>
<path d="M1695 3050 c3 -5 8 -10 11 -10 2 0 4 5 4 10 0 6 -5 10 -11 10 -5 0
-7 -4 -4 -10z"/>
<path d="M1773 2978 c-18 -24 -24 -38 -16 -38 10 0 36 40 30 46 -2 3 -9 -1
-14 -8z"/>
<path d="M5837 2961 c3 -12 9 -21 14 -21 14 0 11 16 -5 29 -12 10 -13 8 -9 -8z"/>
<path d="M1720 2906 c-6 -9 -10 -21 -8 -28 3 -8 9 -4 17 10 15 28 9 39 -9 18z"/>
<path d="M5875 2910 c3 -5 8 -10 11 -10 2 0 4 5 4 10 0 6 -5 10 -11 10 -5 0
-7 -4 -4 -10z"/>
<path d="M1705 2730 c-3 -5 -1 -10 4 -10 6 0 11 5 11 10 0 6 -2 10 -4 10 -3 0
-8 -4 -11 -10z"/>
<path d="M6025 2720 c-3 -5 1 -10 9 -10 9 0 16 5 16 10 0 6 -4 10 -9 10 -6 0
-13 -4 -16 -10z"/>
<path d="M1700 2670 c0 -5 5 -10 11 -10 5 0 7 5 4 10 -3 6 -8 10 -11 10 -2 0
-4 -4 -4 -10z"/>
<path d="M3821 2624 c0 -11 3 -14 6 -6 3 7 2 16 -1 19 -3 4 -6 -2 -5 -13z"/>
<path d="M3511 2534 c-12 -31 -19 -59 -17 -62 6 -5 6 -4 31 67 23 66 10 62
-14 -5z"/>
<path d="M4083 2565 c12 -43 39 -110 47 -118 4 -5 -1 20 -12 55 -12 35 -25 68
-31 73 -6 7 -8 3 -4 -10z"/>
<path d="M2120 2506 c0 -9 5 -16 10 -16 6 0 10 4 10 9 0 6 -4 13 -10 16 -5 3
-10 -1 -10 -9z"/>
<path d="M5437 2500 c3 -11 12 -20 21 -20 13 0 12 3 -3 20 -10 11 -19 20 -21
20 -1 0 0 -9 3 -20z"/>
<path d="M1600 2491 c0 -5 7 -11 14 -14 10 -4 13 -1 9 9 -6 15 -23 19 -23 5z"/>
<path d="M6012 2488 c-19 -19 -14 -30 8 -18 11 6 20 15 20 20 0 14 -14 12 -28
-2z"/>
<path d="M2083 2450 c-9 -16 -20 -30 -24 -30 -4 0 -9 -10 -13 -22 -4 -18 4
-13 34 20 39 42 49 62 31 62 -6 0 -18 -13 -28 -30z"/>
<path d="M1761 2454 c0 -11 3 -14 6 -6 3 7 2 16 -1 19 -3 4 -6 -2 -5 -13z"/>
<path d="M5840 2464 c0 -6 7 -19 15 -30 8 -10 14 -14 14 -9 0 6 -6 19 -14 29
-8 11 -15 15 -15 10z"/>
<path d="M1555 2398 c-9 -24 -21 -52 -26 -63 -15 -36 -15 -95 1 -95 5 0 8 14
6 30 -2 20 1 30 10 30 13 0 19 26 14 59 -1 9 4 12 16 7 14 -5 15 -4 5 8 -9 11
-8 17 4 30 15 15 13 36 -4 36 -4 0 -16 -19 -26 -42z"/>
<path d="M5275 2420 c-3 -5 -1 -10 4 -10 6 0 11 5 11 10 0 6 -2 10 -4 10 -3 0
-8 -4 -11 -10z"/>
<path d="M6034 2408 c-18 -20 -18 -21 -1 -15 10 4 23 7 28 7 5 0 9 7 9 15 0
21 -14 19 -36 -7z"/>
<path d="M2200 2405 c-7 -9 -10 -18 -7 -21 3 -3 10 4 17 15 13 25 8 27 -10 6z"/>
<path d="M3190 2393 c0 -12 5 -25 10 -28 13 -8 13 15 0 35 -8 12 -10 11 -10
-7z"/>
<path d="M5521 2394 c0 -11 3 -14 6 -6 3 7 2 16 -1 19 -3 4 -6 -2 -5 -13z"/>
<path d="M1980 2390 c0 -5 5 -10 11 -10 5 0 7 5 4 10 -3 6 -8 10 -11 10 -2 0
-4 -4 -4 -10z"/>
<path d="M5756 2383 c-6 -14 -5 -15 5 -6 7 7 10 15 7 18 -3 3 -9 -2 -12 -12z"/>
<path d="M6062 2384 c-30 -21 -28 -32 6 -26 24 5 25 3 14 -10 -8 -10 -10 -26
-6 -42 5 -22 8 -23 25 -13 23 14 23 22 1 69 -17 36 -19 37 -40 22z"/>
<path d="M4410 2374 c0 -8 5 -12 10 -9 6 3 10 10 10 16 0 5 -4 9 -10 9 -5 0
-10 -7 -10 -16z"/>
<path d="M5366 2376 c3 -8 13 -17 21 -20 25 -10 23 -3 -3 17 -18 13 -22 14
-18 3z"/>
<path d="M5880 2373 c0 -4 5 -15 10 -23 8 -13 10 -13 10 2 0 9 -4 20 -10 23
-5 3 -10 3 -10 -2z"/>
<path d="M5300 2369 c0 -9 31 -69 36 -69 2 0 4 6 4 13 0 12 -39 67 -40 56z"/>
<path d="M2170 2349 c0 -5 5 -7 10 -4 6 3 10 8 10 11 0 2 -4 4 -10 4 -5 0 -10
-5 -10 -11z"/>
<path d="M5350 2351 c0 -5 5 -13 10 -16 6 -3 10 -2 10 4 0 5 -4 13 -10 16 -5
3 -10 2 -10 -4z"/>
<path d="M5386 2325 c-17 -13 -18 -18 -6 -40 10 -19 19 -24 34 -19 18 6 19 5
8 -8 -10 -12 -10 -22 -1 -44 10 -26 12 -27 19 -9 6 17 -5 93 -15 104 -3 2 -7
-4 -11 -13 -8 -20 -24 -21 -24 -2 0 8 7 16 15 20 15 5 21 26 8 26 -5 0 -17 -7
-27 -15z"/>
<path d="M1700 2284 c0 -8 5 -12 10 -9 6 3 10 10 10 16 0 5 -4 9 -10 9 -5 0
-10 -7 -10 -16z"/>
<path d="M2288 2273 c-22 -26 -68 -108 -68 -122 0 -7 5 -9 10 -6 6 4 8 11 5
16 -4 5 -1 9 5 9 6 0 8 -11 4 -27 -4 -22 -3 -25 5 -13 6 8 9 27 6 41 -4 18 2
36 25 64 37 46 44 79 8 38z"/>
<path d="M5239 2272 c5 -9 19 -26 30 -36 31 -28 28 2 -3 32 -29 26 -40 29 -27
4z"/>
<path d="M5917 2283 c-4 -3 -7 -11 -7 -17 0 -6 5 -5 12 2 6 6 9 14 7 17 -3 3
-9 2 -12 -2z"/>
<path d="M6105 2280 c-3 -5 1 -10 9 -10 9 0 16 5 16 10 0 6 -4 10 -9 10 -6 0
-13 -4 -16 -10z"/>
<path d="M5356 2261 c-4 -7 -5 -15 -2 -18 9 -9 19 4 14 18 -4 11 -6 11 -12 0z"/>
<path d="M6105 2250 c-3 -6 1 -13 10 -16 19 -8 30 0 20 15 -8 14 -22 14 -30 1z"/>
<path d="M1696 2241 c-4 -6 -2 -11 5 -11 9 0 8 -4 -1 -15 -6 -8 -10 -19 -8
-26 2 -6 9 0 15 13 12 26 2 60 -11 39z"/>
<path d="M4377 2221 c-4 -17 -3 -21 5 -13 5 5 8 16 6 23 -3 8 -7 3 -11 -10z"/>
<path d="M5914 2214 c0 -13 5 -24 10 -24 5 0 15 -8 22 -17 11 -15 11 -12 2 19
-13 44 -36 59 -34 22z"/>
<path d="M1510 2213 c0 -11 -4 -23 -9 -28 -5 -6 -12 -21 -16 -35 -7 -25 -7
-25 13 -5 23 24 36 71 22 80 -5 3 -10 -2 -10 -12z"/>
<path d="M3232 2200 c0 -19 2 -27 5 -17 2 9 2 25 0 35 -3 9 -5 1 -5 -18z"/>
<path d="M6115 2209 c-4 -5 0 -18 9 -28 9 -10 16 -27 16 -38 0 -12 7 -23 15
-27 8 -3 16 -16 16 -28 1 -17 2 -19 6 -5 6 23 -16 89 -36 104 -11 9 -12 12 -3
13 7 0 10 5 7 10 -8 13 -22 13 -30 -1z"/>
<path d="M5300 2202 c0 -5 10 -17 22 -28 l21 -19 -18 28 c-18 28 -25 33 -25
19z"/>
<path d="M5368 2188 c7 -7 12 -21 12 -33 0 -22 17 -45 34 -45 5 0 2 8 -6 18
-9 9 -13 23 -11 30 6 15 -14 42 -30 42 -7 0 -7 -4 1 -12z"/>
<path d="M1673 2168 c1 -16 5 -28 9 -28 10 0 9 9 -2 35 -8 17 -8 16 -7 -7z"/>
<path d="M4377 2183 c-4 -3 -7 -11 -7 -17 0 -6 5 -5 12 2 6 6 9 14 7 17 -3 3
-9 2 -12 -2z"/>
<path d="M2300 2119 c-33 -33 -60 -65 -60 -71 0 -6 1 -9 3 -7 1 3 31 35 67 72
35 37 61 67 57 67 -4 0 -34 -27 -67 -61z"/>
<path d="M5440 2170 c0 -5 5 -10 11 -10 5 0 7 5 4 10 -3 6 -8 10 -11 10 -2 0
-4 -4 -4 -10z"/>
<path d="M5201 2147 c2 -1 15 -11 29 -22 l25 -20 -19 23 c-11 12 -24 22 -29
22 -6 0 -8 -1 -6 -3z"/>
<path d="M5440 2142 c0 -12 19 -26 26 -19 2 2 -2 10 -11 17 -9 8 -15 8 -15 2z"/>
<path d="M4372 2120 c0 -14 2 -19 5 -12 2 6 2 18 0 25 -3 6 -5 1 -5 -13z"/>
<path d="M5651 2114 c0 -11 3 -14 6 -6 3 7 2 16 -1 19 -3 4 -6 -2 -5 -13z"/>
<path d="M5270 2095 c0 -5 5 -17 10 -25 5 -8 10 -10 10 -5 0 6 -5 17 -10 25
-5 8 -10 11 -10 5z"/>
<path d="M5407 2076 c-4 -9 -2 -18 3 -21 6 -4 7 -35 4 -75 -4 -38 -3 -77 1
-87 4 -10 7 -30 6 -45 -1 -14 3 -29 8 -33 8 -4 9 15 5 64 -4 48 -2 71 5 71 15
0 14 47 -2 92 -16 46 -23 53 -30 34z m30 -108 c-3 -7 -5 -2 -5 12 0 14 2 19 5
13 2 -7 2 -19 0 -25z"/>
<path d="M5490 2040 c0 -5 5 -10 10 -10 6 0 10 5 10 10 0 6 -4 10 -10 10 -5 0
-10 -4 -10 -10z"/>
<path d="M2220 2014 c0 -8 5 -12 10 -9 6 3 10 10 10 16 0 5 -4 9 -10 9 -5 0
-10 -7 -10 -16z"/>
<path d="M2931 2004 c0 -11 3 -14 6 -6 3 7 2 16 -1 19 -3 4 -6 -2 -5 -13z"/>
<path d="M4301 1974 c0 -11 3 -14 6 -6 3 7 2 16 -1 19 -3 4 -6 -2 -5 -13z"/>
<path d="M4353 1960 c-8 -21 -16 -29 -24 -24 -9 5 -10 2 -4 -12 4 -10 11 -40
15 -66 8 -60 16 -69 30 -32 8 19 9 52 3 98 -8 67 -8 68 -20 36z"/>
<path d="M5485 1980 c-3 -5 -1 -10 4 -10 6 0 11 5 11 10 0 6 -2 10 -4 10 -3 0
-8 -4 -11 -10z"/>
<path d="M3250 1942 c0 -24 -5 -53 -11 -64 -8 -14 -8 -23 0 -31 6 -6 11 -19
11 -29 0 -10 5 -18 10 -18 6 0 10 1 10 3 0 1 4 28 10 60 8 50 7 62 -10 90
l-20 32 0 -43z"/>
<path d="M5351 1964 c0 -11 3 -14 6 -6 3 7 2 16 -1 19 -3 4 -6 -2 -5 -13z"/>
<path d="M2922 1935 c0 -16 2 -22 5 -12 2 9 2 23 0 30 -3 6 -5 -1 -5 -18z"/>
<path d="M5473 1929 c-10 -10 -9 -15 5 -25 9 -8 24 -13 32 -13 13 0 13 1 -1
12 -9 7 -18 18 -20 25 -3 10 -7 10 -16 1z"/>
<path d="M1390 1893 c0 -21 3 -24 9 -14 5 8 7 20 4 28 -8 21 -13 15 -13 -14z"/>
<path d="M2920 1875 c0 -8 -7 -15 -15 -15 -8 0 -15 -7 -15 -15 0 -18 16 -20
26 -4 5 8 10 6 16 -5 13 -24 28 -19 28 9 0 14 -8 29 -20 35 -16 9 -20 8 -20
-5z"/>
<path d="M4660 1856 c0 -20 5 -36 10 -36 6 0 10 13 10 29 0 17 -4 33 -10 36
-6 4 -10 -8 -10 -29z"/>
<path d="M6255 1880 c3 -5 10 -10 16 -10 5 0 9 5 9 10 0 6 -7 10 -16 10 -8 0
-12 -4 -9 -10z"/>
<path d="M5447 1873 c-14 -13 -6 -24 13 -18 14 5 20 2 20 -9 0 -9 -7 -16 -17
-16 -15 0 -15 -2 0 -17 19 -22 42 -81 57 -151 7 -28 16 -55 21 -58 15 -9 10
38 -12 126 -11 45 -18 84 -16 87 3 2 8 -8 11 -23 4 -14 10 -24 13 -21 3 3 -3
29 -13 57 -15 43 -22 50 -44 50 -15 0 -30 -3 -33 -7z"/>
<path d="M2060 1841 c-7 -17 -8 -36 -4 -43 6 -9 11 0 15 27 9 50 5 54 -11 16z"/>
<path d="M4690 1844 c0 -9 7 -14 17 -12 25 5 28 28 4 28 -12 0 -21 -6 -21 -16z"/>
<path d="M2870 1821 c0 -4 16 -22 35 -40 19 -17 35 -28 35 -23 0 5 -16 22 -35
39 -19 17 -35 28 -35 24z"/>
<path d="M5768 1803 c5 -21 7 -23 10 -9 2 10 0 22 -6 28 -6 6 -7 0 -4 -19z"/>
<path d="M4709 1794 c-21 -24 -22 -26 -3 -16 25 13 50 42 37 42 -5 0 -20 -12
-34 -26z"/>
<path d="M1372 1783 c-18 -32 -16 -51 4 -31 9 8 14 24 12 34 -4 18 -5 17 -16
-3z"/>
<path d="M6267 1786 c-6 -15 18 -55 26 -46 8 7 -4 60 -13 60 -4 0 -10 -6 -13
-14z"/>
<path d="M4061 1754 c0 -11 3 -14 6 -6 3 7 2 16 -1 19 -3 4 -6 -2 -5 -13z"/>
<path d="M1446 1747 c3 -10 9 -15 12 -12 3 3 0 11 -7 18 -10 9 -11 8 -5 -6z"/>
<path d="M3543 1725 c0 -22 2 -30 4 -17 2 12 2 30 0 40 -3 9 -5 -1 -4 -23z"/>
<path d="M5766 1751 c-4 -7 -5 -15 -2 -18 9 -9 19 4 14 18 -4 11 -6 11 -12 0z"/>
<path d="M6190 1740 c0 -11 5 -20 10 -20 6 0 10 9 10 20 0 11 -4 20 -10 20 -5
0 -10 -9 -10 -20z"/>
<path d="M6127 1709 c3 -24 7 -46 9 -48 9 -10 3 65 -5 78 -6 10 -8 -1 -4 -30z"/>
<path d="M2516 1722 c-9 -26 8 -52 33 -52 10 0 12 3 5 8 -6 4 -15 21 -21 37
-10 29 -10 29 -17 7z"/>
<path d="M5085 1715 c-5 -16 -13 -33 -19 -37 -7 -5 -8 -8 0 -8 5 0 19 6 29 14
16 11 17 18 8 37 l-11 24 -7 -30z"/>
<path d="M2041 1714 c0 -11 3 -14 6 -6 3 7 2 16 -1 19 -3 4 -6 -2 -5 -13z"/>
<path d="M4072 1710 c0 -14 2 -19 5 -12 2 6 2 18 0 25 -3 6 -5 1 -5 -13z"/>
<path d="M1421 1694 c-16 -19 -20 -29 -12 -37 8 -8 11 -6 11 6 0 9 7 20 16 25
9 5 15 15 13 21 -3 7 -14 2 -28 -15z"/>
<path d="M6221 1663 c7 -10 15 -20 16 -22 2 -2 3 5 3 17 0 14 -6 22 -16 22
-14 0 -15 -3 -3 -17z"/>
<path d="M3066 1603 c9 -21 22 -45 30 -53 13 -13 14 -11 4 15 -16 45 -32 75
-41 75 -4 0 -1 -17 7 -37z"/>
<path d="M4535 1606 c-10 -19 -16 -38 -13 -42 8 -7 40 54 36 68 -2 5 -12 -6
-23 -26z"/>
<path d="M6146 1615 c4 -8 8 -15 10 -15 2 0 4 7 4 15 0 8 -4 15 -10 15 -5 0
-7 -7 -4 -15z"/>
<path d="M3189 1333 c2 -21 6 -32 8 -25 3 6 10 9 16 5 8 -5 8 -2 0 8 -10 12
-10 18 0 29 9 10 9 11 0 6 -7 -4 -13 -2 -13 3 0 6 -4 11 -8 11 -4 0 -6 -17 -3
-37z"/>
<path d="M4417 1363 c-4 -3 -7 -14 -7 -24 0 -9 -6 -20 -12 -22 -8 -3 -6 -6 5
-6 10 -1 17 6 17 17 0 10 5 23 12 30 7 7 8 12 2 12 -6 0 -14 -3 -17 -7z"/>
<path d="M3240 1349 c0 -5 5 -7 10 -4 6 3 10 8 10 11 0 2 -4 4 -10 4 -5 0 -10
-5 -10 -11z"/>
<path d="M4360 1350 c0 -5 5 -10 11 -10 5 0 7 5 4 10 -3 6 -8 10 -11 10 -2 0
-4 -4 -4 -10z"/>
<path d="M2590 1262 c0 -11 30 -37 53 -45 25 -9 21 -2 -18 27 -19 15 -35 23
-35 18z"/>
<path d="M4990 1240 c-8 -5 -11 -12 -7 -16 4 -4 15 0 24 9 18 18 8 23 -17 7z"/>
<path d="M1850 1220 c-8 -5 -10 -10 -5 -10 6 0 17 5 25 10 8 5 11 10 5 10 -5
0 -17 -5 -25 -10z"/>
<path d="M5370 1210 c0 -5 7 -10 16 -10 8 0 12 5 9 10 -3 6 -10 10 -16 10 -5
0 -9 -4 -9 -10z"/>
<path d="M2262 1135 c-24 -28 -27 -35 -12 -35 13 0 50 37 50 50 0 17 -15 11
-38 -15z"/>
<path d="M5328 1154 c-3 -2 -3 -16 0 -29 5 -28 22 -24 22 5 0 19 -13 34 -22
24z"/>
<path d="M1517 1113 c-4 -3 -7 -11 -7 -17 0 -6 5 -5 12 2 6 6 9 14 7 17 -3 3
-9 2 -12 -2z"/>
<path d="M6088 1103 c7 -3 16 -2 19 1 4 3 -2 6 -13 5 -11 0 -14 -3 -6 -6z"/>
<path d="M6130 1070 c0 -11 5 -20 10 -20 6 0 10 9 10 20 0 11 -4 20 -10 20 -5
0 -10 -9 -10 -20z"/>
<path d="M6265 1080 c-3 -5 -1 -10 4 -10 6 0 11 5 11 10 0 6 -2 10 -4 10 -3 0
-8 -4 -11 -10z"/>
<path d="M1420 1065 c-14 -8 -33 -14 -43 -15 -27 0 -97 -24 -97 -32 0 -5 11
-8 25 -8 14 0 25 4 25 10 0 5 13 7 31 3 16 -3 40 -1 52 4 64 29 77 37 77 45 0
4 -4 8 -10 8 -5 0 -10 -5 -10 -11 0 -8 -4 -8 -13 -1 -8 7 -19 6 -37 -3z"/>
<path d="M6160 1062 c0 -12 68 -41 105 -45 17 -2 36 -7 43 -11 7 -4 16 -4 22
-1 13 8 -11 34 -26 28 -7 -2 -15 1 -19 6 -3 6 -11 9 -16 5 -5 -3 -15 -1 -22 4
-17 13 -87 25 -87 14z"/>
<path d="M2252 995 c-13 -13 -21 -29 -17 -35 3 -5 1 -10 -6 -10 -7 0 -9 -3 -6
-6 9 -10 77 45 77 62 0 21 -22 17 -48 -11z"/>
<path d="M5312 1003 c4 -21 52 -46 76 -40 14 4 13 6 -5 12 -13 4 -23 13 -23
20 0 12 -21 25 -42 25 -5 0 -8 -8 -6 -17z"/>
<path d="M971 941 c-13 -10 -22 -23 -20 -30 2 -6 16 2 32 19 32 33 25 40 -12
11z"/>
<path d="M5398 933 c7 -3 16 -2 19 1 4 3 -2 6 -13 5 -11 0 -14 -3 -6 -6z"/>
<path d="M5345 900 c3 -5 10 -10 16 -10 5 0 9 5 9 10 0 6 -7 10 -16 10 -8 0
-12 -4 -9 -10z"/>
<path d="M2068 783 c6 -2 18 -2 25 0 6 3 1 5 -13 5 -14 0 -19 -2 -12 -5z"/>
<path d="M1960 750 c-12 -8 -11 -10 7 -10 12 0 25 5 28 10 8 13 -15 13 -35 0z"/>
<path d="M5624 745 c15 -8 33 -12 39 -8 12 7 -17 21 -48 22 -16 1 -14 -2 9
-14z"/>
<path d="M1915 740 c-3 -5 1 -10 10 -10 9 0 13 5 10 10 -3 6 -8 10 -10 10 -2
0 -7 -4 -10 -10z"/>
<path d="M5688 723 c6 -2 18 -2 25 0 6 3 1 5 -13 5 -14 0 -19 -2 -12 -5z"/>
<path d="M5760 710 c0 -5 7 -10 15 -10 8 0 15 5 15 10 0 6 -7 10 -15 10 -8 0
-15 -4 -15 -10z"/>
<path d="M5802 688 c6 -18 28 -21 28 -4 0 9 -7 16 -16 16 -9 0 -14 -5 -12 -12z"/>
<path d="M1230 560 c0 -5 7 -10 16 -10 8 0 12 5 9 10 -3 6 -10 10 -16 10 -5 0
-9 -4 -9 -10z"/>
<path d="M1190 489 c0 -5 5 -7 10 -4 6 3 10 8 10 11 0 2 -4 4 -10 4 -5 0 -10
-5 -10 -11z"/>
<path d="M870 463 c0 -10 4 -14 8 -8 4 6 11 13 16 18 5 4 2 7 -7 7 -10 0 -17
-8 -17 -17z"/>
<path d="M6730 450 c0 -5 5 -10 10 -10 6 0 10 5 10 10 0 6 -4 10 -10 10 -5 0
-10 -4 -10 -10z"/>
<path d="M4818 123 c12 -2 32 -2 45 0 12 2 2 4 -23 4 -25 0 -35 -2 -22 -4z"/>
<path d="M2936 52 c-3 -5 -31 -7 -63 -6 -59 4 -153 -19 -153 -37 0 -13 177 -9
235 6 35 9 42 13 25 15 -23 1 -22 3 10 15 l35 13 -42 1 c-23 1 -44 -3 -47 -7z"/>
<path d="M4560 10 c-10 -6 33 -10 130 -9 90 0 137 4 125 9 -28 12 -237 12
-255 0z"/>
</g>
</svg>
